<svg id="Layer_1" data-name="Layer 1" xmlns="http://www.w3.org/2000/svg" viewBox="0 0 960 300"><defs><style>.cls-1{fill:#613e68;}.cls-2,.cls-4{fill:none;stroke-miterlimit:10;stroke-width:3px;}.cls-2{stroke:#613e68;}.cls-3{fill:#e2481e;}.cls-4{stroke:#e2481e;stroke-linecap:round;}</style></defs><title>cd</title><circle class="cls-1" cx="44.36" cy="103.09" r="41.17"/><circle class="cls-1" cx="539.96" cy="102.17" r="52.09"/><circle class="cls-1" cx="825.05" cy="201.84" r="41.17"/><circle class="cls-1" cx="247.52" cy="154.48" r="27.9"/><path class="cls-2" d="M876.32,49.51,915,118.2a.91.91,0,0,0,1.53.09L949,61.15a.83.83,0,0,0-.69-1.17L877.17,48.43A.74.74,0,0,0,876.32,49.51Z"/><path class="cls-3" d="M336.12,194.48l20.1,35.73a.48.48,0,0,0,.8,0l16.9-29.73a.43.43,0,0,0-.35-.61l-37-6A.4.4,0,0,0,336.12,194.48Z"/><polyline class="cls-4" points="343.24 94.47 361.87 94.11 361.48 73.51 382.6 72.03 382.23 52.15 409.98 50.73"/><polyline class="cls-4" points="83.51 172.2 77.07 184.1 90.23 191.22 83.61 205.09 96.31 211.97 87.29 230.01"/><circle class="cls-4" cx="667.75" cy="208.5" r="14.59"/></svg>