<svg id="Layer_1" data-name="Layer 1" xmlns="http://www.w3.org/2000/svg" viewBox="0 0 330 660"><defs><style>.cls-1{fill:#613e68;}.cls-2,.cls-4{fill:none;stroke-miterlimit:10;stroke-width:3px;}.cls-2{stroke:#613e68;}.cls-3{fill:#e2481e;}.cls-4{stroke:#e2481e;stroke-linecap:round;}</style></defs><title>cd</title><circle class="cls-1" cx="62.13" cy="45.77" r="37.73"/><circle class="cls-1" cx="141.41" cy="348.75" r="47.74"/><circle class="cls-1" cx="215.51" cy="598.86" r="37.73"/><circle class="cls-1" cx="292.84" cy="143.71" r="25.57"/><path class="cls-2" d="M229.55,437.61l35.41,63a.83.83,0,0,0,1.41.08l29.77-52.37a.76.76,0,0,0-.62-1.07l-65.2-10.59A.68.68,0,0,0,229.55,437.61Z"/><path class="cls-3" d="M48.31,612l18.42,32.75a.43.43,0,0,0,.73.05L83,617.57a.4.4,0,0,0-.32-.56l-33.92-5.5A.35.35,0,0,0,48.31,612Z"/><polyline class="cls-4" points="227.25 386.49 244.32 386.17 243.97 367.28 263.32 365.93 262.98 347.7 288.41 346.4"/><polyline class="cls-4" points="112.51 169.12 106.61 180.03 118.67 186.55 112.61 199.27 124.25 205.56 115.98 222.11"/><circle class="cls-4" cx="83" cy="426.5" r="13.37"/></svg>