<svg xmlns="http://www.w3.org/2000/svg" xmlns:xlink="http://www.w3.org/1999/xlink" viewBox="0 0 660 450"><defs><style>.cls-1{isolation:isolate;}.cls-2,.cls-24{opacity:0.5;}.cls-103,.cls-2,.cls-80{mix-blend-mode:multiply;}.cls-3,.cls-50{fill:#afb6e5;}.cls-3{opacity:0;}.cls-4{fill:#a7adda;opacity:0.02;}.cls-5{fill:#9ea5cf;opacity:0.05;}.cls-6{fill:#969cc4;opacity:0.07;}.cls-7{fill:#8e93b9;opacity:0.1;}.cls-8{fill:#858bae;opacity:0.12;}.cls-9{fill:#7d82a4;opacity:0.14;}.cls-10{fill:#757999;opacity:0.17;}.cls-11{fill:#6c718e;opacity:0.19;}.cls-12{fill:#646883;opacity:0.21;}.cls-13{fill:#5c5f78;opacity:0.24;}.cls-14{fill:#53576d;opacity:0.26;}.cls-15{fill:#4b4e62;opacity:0.29;}.cls-16{fill:#434557;opacity:0.31;}.cls-17{fill:#3a3d4c;opacity:0.33;}.cls-18{fill:#323441;opacity:0.36;}.cls-19{fill:#2a2b37;opacity:0.38;}.cls-20{fill:#21232c;opacity:0.4;}.cls-21{fill:#191a21;opacity:0.43;}.cls-22{fill:#111116;opacity:0.45;}.cls-23{fill:#08090b;opacity:0.48;}.cls-25{fill:url(#linear-gradient);}.cls-26{fill:url(#linear-gradient-2);}.cls-27{mix-blend-mode:color-dodge;fill:url(#Radial_Gradient_1);}.cls-28{opacity:0.2;}.cls-29{fill:#abb2e2;opacity:0.05;}.cls-30,.cls-81{fill:#a7addf;}.cls-30{opacity:0.1;}.cls-31{fill:#a3a9dc;opacity:0.14;}.cls-32{fill:#9fa4d8;opacity:0.19;}.cls-33{fill:#9ba0d5;opacity:0.24;}.cls-34{fill:#979bd2;opacity:0.29;}.cls-35{fill:#9397cf;opacity:0.33;}.cls-36{fill:#8f92cc;opacity:0.38;}.cls-37{fill:#8b8ec9;opacity:0.43;}.cls-38{fill:#8789c6;opacity:0.48;}.cls-39{fill:#8385c2;opacity:0.52;}.cls-40{fill:#7f80bf;opacity:0.57;}.cls-41{fill:#7b7cbc;opacity:0.62;}.cls-42{fill:#7777b9;opacity:0.67;}.cls-43{fill:#7373b6;opacity:0.71;}.cls-44{fill:#6f6eb3;opacity:0.76;}.cls-45{fill:#6b6ab0;opacity:0.81;}.cls-46{fill:#6765ac;opacity:0.86;}.cls-47,.cls-90{fill:#6361a9;}.cls-47{opacity:0.9;}.cls-48{fill:#5f5ca6;opacity:0.95;}.cls-49{fill:#5b58a3;}.cls-51{fill:url(#linear-gradient-3);}.cls-52{fill:url(#linear-gradient-4);}.cls-53{fill:url(#linear-gradient-5);}.cls-54{fill:url(#linear-gradient-6);}.cls-55{fill:url(#linear-gradient-7);}.cls-56{fill:url(#linear-gradient-8);}.cls-57{fill:url(#linear-gradient-9);}.cls-58{fill:url(#linear-gradient-10);}.cls-59{fill:url(#linear-gradient-11);}.cls-60{fill:url(#linear-gradient-12);}.cls-61{fill:url(#linear-gradient-13);}.cls-62{fill:url(#linear-gradient-14);}.cls-63{fill:url(#linear-gradient-15);}.cls-64{fill:url(#linear-gradient-16);}.cls-65{fill:url(#linear-gradient-17);}.cls-66{fill:url(#linear-gradient-18);}.cls-67{fill:url(#linear-gradient-19);}.cls-68{fill:url(#linear-gradient-20);}.cls-69{fill:url(#linear-gradient-21);}.cls-70{fill:url(#linear-gradient-22);}.cls-71{fill:url(#linear-gradient-23);}.cls-72{fill:#fff;}.cls-73{fill:url(#linear-gradient-24);}.cls-74{fill:#613e68;}.cls-75{fill:url(#linear-gradient-25);}.cls-76{fill:url(#linear-gradient-26);}.cls-77{fill:url(#linear-gradient-27);}.cls-78{fill:#e6e7e8;}.cls-79{fill:url(#linear-gradient-28);}.cls-80{opacity:0.3;}.cls-81{opacity:0.09;}.cls-82{fill:#a0a5d9;opacity:0.18;}.cls-83{fill:#989cd3;opacity:0.27;}.cls-84{fill:#9094cd;opacity:0.36;}.cls-85{fill:#898bc7;opacity:0.45;}.cls-86{fill:#8183c1;opacity:0.55;}.cls-87{fill:#7a7abb;opacity:0.64;}.cls-88{fill:#7272b5;opacity:0.73;}.cls-89{fill:#6a69af;opacity:0.82;}.cls-90{opacity:0.91;}.cls-91{fill:url(#linear-gradient-29);}.cls-92{fill:url(#linear-gradient-30);}.cls-93{fill:url(#linear-gradient-31);}.cls-94{fill:#273b98;}.cls-95{mix-blend-mode:screen;fill:url(#radial-gradient);}.cls-96{fill:url(#linear-gradient-32);}.cls-97{fill:url(#linear-gradient-33);}.cls-98{fill:url(#linear-gradient-34);}.cls-99{fill:url(#linear-gradient-35);}.cls-100{fill:#ffd4c0;}.cls-101{fill:#ffdecf;}.cls-102{fill:url(#linear-gradient-36);}.cls-103{fill:#ced3f4;}.cls-104{fill:#4e0070;}.cls-105{fill:#35004d;}.cls-106{fill:url(#linear-gradient-37);}.cls-107{fill:url(#linear-gradient-38);}.cls-108{fill:url(#linear-gradient-39);}.cls-109{fill:url(#New_Gradient_Swatch_copy_36);}.cls-110{fill:url(#linear-gradient-40);}.cls-111,.cls-115{opacity:0.95;}.cls-111{fill:url(#linear-gradient-41);}.cls-112{fill:url(#linear-gradient-42);}.cls-113{fill:url(#linear-gradient-43);}.cls-114{fill:url(#linear-gradient-44);}.cls-115{fill:url(#linear-gradient-45);}.cls-116{fill:url(#linear-gradient-46);}.cls-117{fill:url(#linear-gradient-47);}.cls-118{fill:url(#linear-gradient-48);}.cls-119{fill:url(#linear-gradient-49);}</style><linearGradient id="linear-gradient" x1="272.76" y1="307.74" x2="507.12" y2="307.74" gradientUnits="userSpaceOnUse"><stop offset="0" stop-color="#b7bee9"/><stop offset="0.18" stop-color="#bac1eb"/><stop offset="0.33" stop-color="#c5cbef"/><stop offset="0.43" stop-color="#d1d6f5"/><stop offset="0.46" stop-color="#dbe0fa"/><stop offset="0.5" stop-color="#e5e9ff"/><stop offset="0.53" stop-color="#d1d6f6"/><stop offset="0.56" stop-color="#afb6e5"/><stop offset="1" stop-color="#afb6e5"/></linearGradient><linearGradient id="linear-gradient-2" x1="382.64" y1="202.69" x2="341.04" y2="310.06" gradientUnits="userSpaceOnUse"><stop offset="0" stop-color="#afb6e5"/><stop offset="0.14" stop-color="#b6bce8"/><stop offset="0.35" stop-color="#c8cdf1"/><stop offset="0.58" stop-color="#e5e9ff"/><stop offset="0.86" stop-color="#f5f6ff"/><stop offset="1" stop-color="#fff"/></linearGradient><radialGradient id="Radial_Gradient_1" cx="355.47" cy="287.3" r="63.07" gradientUnits="userSpaceOnUse"><stop offset="0" stop-color="#fff"/><stop offset="1"/></radialGradient><linearGradient id="linear-gradient-3" x1="312.72" y1="35.37" x2="398.82" y2="301.18" gradientUnits="userSpaceOnUse"><stop offset="0" stop-color="#b0b7e6"/><stop offset="0.19" stop-color="#b2b8e6"/><stop offset="0.28" stop-color="#b3b9e6"/><stop offset="0.41" stop-color="#afb6e5"/><stop offset="0.91" stop-color="#afb6e5"/><stop offset="1" stop-color="#b0b7e6"/></linearGradient><linearGradient id="linear-gradient-4" x1="312.63" y1="35.41" x2="398.74" y2="301.21" gradientUnits="userSpaceOnUse"><stop offset="0" stop-color="#b2b9e6"/><stop offset="0.19" stop-color="#b4bbe7"/><stop offset="0.28" stop-color="#b7bde7"/><stop offset="0.41" stop-color="#afb6e5"/><stop offset="0.91" stop-color="#afb6e5"/><stop offset="1" stop-color="#b2b9e6"/></linearGradient><linearGradient id="linear-gradient-5" x1="312.55" y1="35.44" x2="398.65" y2="301.24" gradientUnits="userSpaceOnUse"><stop offset="0" stop-color="#b3bae7"/><stop offset="0.19" stop-color="#b7bde9"/><stop offset="0.28" stop-color="#bac0e9"/><stop offset="0.41" stop-color="#afb6e5"/><stop offset="0.91" stop-color="#afb6e5"/><stop offset="1" stop-color="#b3bae7"/></linearGradient><linearGradient id="linear-gradient-6" x1="312.46" y1="35.48" x2="398.56" y2="301.27" gradientUnits="userSpaceOnUse"><stop offset="0" stop-color="#b5bbe8"/><stop offset="0.19" stop-color="#b9c0ea"/><stop offset="0.28" stop-color="#bec4ea"/><stop offset="0.41" stop-color="#afb6e5"/><stop offset="0.91" stop-color="#afb6e5"/><stop offset="1" stop-color="#b5bbe8"/></linearGradient><linearGradient id="linear-gradient-7" x1="312.38" y1="35.51" x2="398.48" y2="301.29" gradientUnits="userSpaceOnUse"><stop offset="0" stop-color="#b6bde8"/><stop offset="0.19" stop-color="#bcc2eb"/><stop offset="0.28" stop-color="#c2c7eb"/><stop offset="0.41" stop-color="#afb6e5"/><stop offset="0.91" stop-color="#afb6e5"/><stop offset="1" stop-color="#b6bde8"/></linearGradient><linearGradient id="linear-gradient-8" x1="312.29" y1="35.55" x2="398.39" y2="301.32" gradientUnits="userSpaceOnUse"><stop offset="0" stop-color="#b8bee9"/><stop offset="0.19" stop-color="#bec5ec"/><stop offset="0.28" stop-color="#c6cbec"/><stop offset="0.39" stop-color="#b2b9e6"/><stop offset="0.41" stop-color="#afb6e5"/><stop offset="0.91" stop-color="#afb6e5"/><stop offset="1" stop-color="#b8bee9"/></linearGradient><linearGradient id="linear-gradient-9" x1="312.21" y1="35.58" x2="398.3" y2="301.35" gradientUnits="userSpaceOnUse"><stop offset="0" stop-color="#b9bfea"/><stop offset="0.19" stop-color="#c1c7ee"/><stop offset="0.28" stop-color="#caceee"/><stop offset="0.38" stop-color="#b6bde7"/><stop offset="0.41" stop-color="#afb6e5"/><stop offset="0.91" stop-color="#afb6e5"/><stop offset="1" stop-color="#b9bfea"/></linearGradient><linearGradient id="linear-gradient-10" x1="312.13" y1="35.62" x2="398.22" y2="301.38" gradientUnits="userSpaceOnUse"><stop offset="0" stop-color="#bac1ea"/><stop offset="0.19" stop-color="#c4c9ef"/><stop offset="0.28" stop-color="#cdd2ef"/><stop offset="0.37" stop-color="#b9c0e8"/><stop offset="0.41" stop-color="#afb6e5"/><stop offset="0.91" stop-color="#afb6e5"/><stop offset="1" stop-color="#bac1ea"/><stop offset="1" stop-color="#bac1ea"/></linearGradient><linearGradient id="linear-gradient-11" x1="312.04" y1="35.65" x2="398.13" y2="301.41" gradientUnits="userSpaceOnUse"><stop offset="0" stop-color="#bcc2eb"/><stop offset="0.19" stop-color="#c6ccf0"/><stop offset="0.28" stop-color="#d0d4f0"/><stop offset="0.28" stop-color="#d1d5f0"/><stop offset="0.36" stop-color="#bdc3ea"/><stop offset="0.41" stop-color="#afb6e5"/><stop offset="0.91" stop-color="#afb6e5"/><stop offset="0.99" stop-color="#bac0ea"/><stop offset="1" stop-color="#bcc2eb"/></linearGradient><linearGradient id="linear-gradient-12" x1="311.96" y1="35.69" x2="398.04" y2="301.43" gradientUnits="userSpaceOnUse"><stop offset="0" stop-color="#bdc3ec"/><stop offset="0.19" stop-color="#c9cef1"/><stop offset="0.27" stop-color="#d3d7f1"/><stop offset="0.28" stop-color="#d5d9f1"/><stop offset="0.35" stop-color="#c1c7eb"/><stop offset="0.41" stop-color="#afb6e5"/><stop offset="0.91" stop-color="#afb6e5"/><stop offset="0.98" stop-color="#bac0ea"/><stop offset="1" stop-color="#bdc3ec"/></linearGradient><linearGradient id="linear-gradient-13" x1="311.87" y1="35.72" x2="397.96" y2="301.46" gradientUnits="userSpaceOnUse"><stop offset="0" stop-color="#bfc5ec"/><stop offset="0.19" stop-color="#cbd1f3"/><stop offset="0.26" stop-color="#d5d9f3"/><stop offset="0.28" stop-color="#d9dcf3"/><stop offset="0.35" stop-color="#c5caec"/><stop offset="0.41" stop-color="#afb6e5"/><stop offset="0.91" stop-color="#afb6e5"/><stop offset="0.98" stop-color="#bac0ea"/><stop offset="1" stop-color="#bfc5ec"/></linearGradient><linearGradient id="linear-gradient-14" x1="311.79" y1="35.76" x2="397.87" y2="301.49" gradientUnits="userSpaceOnUse"><stop offset="0" stop-color="#c0c6ed"/><stop offset="0.19" stop-color="#ced3f4"/><stop offset="0.26" stop-color="#d8dcf4"/><stop offset="0.28" stop-color="#dde0f4"/><stop offset="0.34" stop-color="#c9ceee"/><stop offset="0.41" stop-color="#afb6e5"/><stop offset="0.91" stop-color="#afb6e5"/><stop offset="0.97" stop-color="#bac0ea"/><stop offset="1" stop-color="#c0c6ed"/></linearGradient><linearGradient id="linear-gradient-15" x1="311.71" y1="35.79" x2="397.78" y2="301.52" gradientUnits="userSpaceOnUse"><stop offset="0" stop-color="#c2c7ee"/><stop offset="0.19" stop-color="#d0d6f5"/><stop offset="0.25" stop-color="#dadef5"/><stop offset="0.28" stop-color="#e1e3f5"/><stop offset="0.34" stop-color="#cdd1ef"/><stop offset="0.41" stop-color="#afb6e5"/><stop offset="0.91" stop-color="#afb6e5"/><stop offset="0.97" stop-color="#bac0ea"/><stop offset="1" stop-color="#c2c7ee"/></linearGradient><linearGradient id="linear-gradient-16" x1="311.62" y1="35.83" x2="397.7" y2="301.55" gradientUnits="userSpaceOnUse"><stop offset="0" stop-color="#c3c9ee"/><stop offset="0.19" stop-color="#d3d8f6"/><stop offset="0.25" stop-color="#dde1f6"/><stop offset="0.28" stop-color="#e4e7f6"/><stop offset="0.34" stop-color="#d0d5f0"/><stop offset="0.41" stop-color="#afb6e5"/><stop offset="0.91" stop-color="#afb6e5"/><stop offset="0.97" stop-color="#bac0ea"/><stop offset="1" stop-color="#c3c9ee"/></linearGradient><linearGradient id="linear-gradient-17" x1="311.54" y1="35.86" x2="397.61" y2="301.57" gradientUnits="userSpaceOnUse"><stop offset="0" stop-color="#c4caef"/><stop offset="0.19" stop-color="#d6daf8"/><stop offset="0.25" stop-color="#e0e3f8"/><stop offset="0.28" stop-color="#e8eaf8"/><stop offset="0.33" stop-color="#d4d8f1"/><stop offset="0.41" stop-color="#afb6e5"/><stop offset="0.91" stop-color="#afb6e5"/><stop offset="0.96" stop-color="#bac0ea"/><stop offset="1" stop-color="#c4caef"/></linearGradient><linearGradient id="linear-gradient-18" x1="311.45" y1="35.9" x2="397.53" y2="301.6" gradientUnits="userSpaceOnUse"><stop offset="0" stop-color="#c6cbf0"/><stop offset="0.19" stop-color="#d8ddf9"/><stop offset="0.25" stop-color="#e2e6f9"/><stop offset="0.28" stop-color="#eceef9"/><stop offset="0.33" stop-color="#d8dcf3"/><stop offset="0.41" stop-color="#afb6e5"/><stop offset="0.91" stop-color="#afb6e5"/><stop offset="0.96" stop-color="#bac0ea"/><stop offset="1" stop-color="#c6cbf0"/></linearGradient><linearGradient id="linear-gradient-19" x1="311.37" y1="35.93" x2="397.44" y2="301.63" gradientUnits="userSpaceOnUse"><stop offset="0" stop-color="#c7cdf0"/><stop offset="0.19" stop-color="#dbdffa"/><stop offset="0.24" stop-color="#e5e8fa"/><stop offset="0.28" stop-color="#f0f1fa"/><stop offset="0.33" stop-color="#dcdff4"/><stop offset="0.41" stop-color="#afb6e5"/><stop offset="0.91" stop-color="#afb6e5"/><stop offset="0.96" stop-color="#bac0ea"/><stop offset="1" stop-color="#c7cdf0"/></linearGradient><linearGradient id="linear-gradient-20" x1="311.28" y1="35.97" x2="397.35" y2="301.66" gradientUnits="userSpaceOnUse"><stop offset="0" stop-color="#c9cef1"/><stop offset="0.19" stop-color="#dde2fb"/><stop offset="0.24" stop-color="#e7eafb"/><stop offset="0.28" stop-color="#f4f5fb"/><stop offset="0.33" stop-color="#e0e3f5"/><stop offset="0.41" stop-color="#afb6e5"/><stop offset="0.91" stop-color="#afb6e5"/><stop offset="0.96" stop-color="#bac0ea"/><stop offset="1" stop-color="#c9cef1"/></linearGradient><linearGradient id="linear-gradient-21" x1="311.2" y1="36.01" x2="397.27" y2="301.69" gradientUnits="userSpaceOnUse"><stop offset="0" stop-color="#cacff2"/><stop offset="0.19" stop-color="#e0e4fd"/><stop offset="0.24" stop-color="#eaedfd"/><stop offset="0.28" stop-color="#f7f8fd"/><stop offset="0.32" stop-color="#e3e6f6"/><stop offset="0.41" stop-color="#b1b8e6"/><stop offset="0.41" stop-color="#afb6e5"/><stop offset="0.91" stop-color="#afb6e5"/><stop offset="0.95" stop-color="#bac0ea"/><stop offset="1" stop-color="#cacff2"/></linearGradient><linearGradient id="linear-gradient-22" x1="311.12" y1="36.04" x2="397.18" y2="301.71" gradientUnits="userSpaceOnUse"><stop offset="0" stop-color="#ccd1f2"/><stop offset="0.19" stop-color="#e2e7fe"/><stop offset="0.24" stop-color="#eceffe"/><stop offset="0.28" stop-color="#fbfcfe"/><stop offset="0.32" stop-color="#e7eaf8"/><stop offset="0.4" stop-color="#b5bbe7"/><stop offset="0.41" stop-color="#afb6e5"/><stop offset="0.91" stop-color="#afb6e5"/><stop offset="0.95" stop-color="#bac0ea"/><stop offset="1" stop-color="#ccd1f2"/></linearGradient><linearGradient id="linear-gradient-23" x1="311.03" y1="36.08" x2="397.09" y2="301.74" gradientUnits="userSpaceOnUse"><stop offset="0" stop-color="#cdd2f3"/><stop offset="0.19" stop-color="#e5e9ff"/><stop offset="0.24" stop-color="#eff2ff"/><stop offset="0.28" stop-color="#fff"/><stop offset="0.32" stop-color="#ebedf9"/><stop offset="0.4" stop-color="#b9bfe8"/><stop offset="0.41" stop-color="#afb6e5"/><stop offset="0.91" stop-color="#afb6e5"/><stop offset="0.95" stop-color="#bac0ea"/><stop offset="1" stop-color="#cdd2f3"/></linearGradient><linearGradient id="linear-gradient-24" x1="174.44" y1="241.82" x2="478.11" y2="117.55" xlink:href="#linear-gradient-2"/><linearGradient id="linear-gradient-25" x1="415.8" y1="163.59" x2="372.1" y2="140.18" xlink:href="#linear-gradient-2"/><linearGradient id="linear-gradient-26" x1="305.33" y1="232.58" x2="375.68" y2="110.74" gradientUnits="userSpaceOnUse"><stop offset="0" stop-color="#ced3f4"/><stop offset="0.01" stop-color="#d3d8f7"/><stop offset="0.06" stop-color="#e1e5fd"/><stop offset="0.1" stop-color="#e5e9ff"/><stop offset="0.25" stop-color="#eaedff"/><stop offset="1" stop-color="#fff"/></linearGradient><linearGradient id="linear-gradient-27" x1="386.44" y1="149.46" x2="282.23" y2="123.91" gradientUnits="userSpaceOnUse"><stop offset="0.01" stop-color="#f39879"/><stop offset="0.18" stop-color="#dd7476"/><stop offset="0.49" stop-color="#af2971"/><stop offset="1" stop-color="#613e68"/></linearGradient><linearGradient id="linear-gradient-28" x1="391.66" y1="173.51" x2="296.67" y2="150.22" gradientUnits="userSpaceOnUse"><stop offset="0" stop-color="#613e68"/><stop offset="0.51" stop-color="#af2971"/><stop offset="0.82" stop-color="#dd7476"/><stop offset="0.99" stop-color="#f39879"/></linearGradient><linearGradient id="linear-gradient-29" x1="267.38" y1="350.57" x2="339.67" y2="225.37" gradientUnits="userSpaceOnUse"><stop offset="0" stop-color="#ced3f4"/><stop offset="0.01" stop-color="#d3d8f7"/><stop offset="0.06" stop-color="#e1e5fd"/><stop offset="0.1" stop-color="#e5e9ff"/><stop offset="0.45" stop-color="#e8ecff"/><stop offset="0.72" stop-color="#f2f4ff"/><stop offset="0.92" stop-color="#fff"/><stop offset="1" stop-color="#f5f7ff"/></linearGradient><linearGradient id="linear-gradient-30" x1="261.78" y1="396.4" x2="281.84" y2="362.22" gradientUnits="userSpaceOnUse"><stop offset="0" stop-color="#ced3f4"/><stop offset="0.02" stop-color="#d3d8f7"/><stop offset="0.1" stop-color="#e1e5fd"/><stop offset="0.17" stop-color="#e5e9ff"/><stop offset="0.52" stop-color="#e8ecff"/><stop offset="0.79" stop-color="#f2f4ff"/><stop offset="1" stop-color="#fff"/></linearGradient><linearGradient id="linear-gradient-31" x1="312.4" y1="242.69" x2="261.42" y2="230.19" xlink:href="#linear-gradient-27"/><radialGradient id="radial-gradient" cx="1578.2" cy="599.78" r="17.55" gradientTransform="matrix(0, 2.19, -1.13, 0, 1021.99, -3373.21)" gradientUnits="userSpaceOnUse"><stop offset="0" stop-color="#5277f7"/><stop offset="0" stop-color="#5277f6"/><stop offset="0.12" stop-color="#3f5bbd"/><stop offset="0.24" stop-color="#2e438b"/><stop offset="0.36" stop-color="#202e60"/><stop offset="0.49" stop-color="#141e3e"/><stop offset="0.61" stop-color="#0b1123"/><stop offset="0.74" stop-color="#05070f"/><stop offset="0.87" stop-color="#010204"/><stop offset="1"/></radialGradient><linearGradient id="linear-gradient-32" x1="368.68" y1="99.51" x2="321.63" y2="87.98" gradientTransform="translate(94.59 -161.55) rotate(30.31)" xlink:href="#linear-gradient-27"/><linearGradient id="linear-gradient-33" x1="367.1" y1="99.54" x2="337.94" y2="92.39" xlink:href="#linear-gradient-28"/><linearGradient id="linear-gradient-34" x1="226.59" y1="238.28" x2="299.28" y2="337.99" gradientUnits="userSpaceOnUse"><stop offset="0.01" stop-color="#b4f759"/><stop offset="0.11" stop-color="#90ed6f"/><stop offset="0.33" stop-color="#35d5a5"/><stop offset="0.46" stop-color="#00c7c5"/><stop offset="0.72" stop-color="#2d9be0"/><stop offset="0.96" stop-color="#5277f7"/></linearGradient><linearGradient id="linear-gradient-35" x1="318.31" y1="300.95" x2="204.32" y2="273.01" xlink:href="#linear-gradient-27"/><linearGradient id="linear-gradient-36" x1="221.63" y1="333.34" x2="251.57" y2="288.14" gradientTransform="translate(14.66 -5.17) rotate(2.21)" gradientUnits="userSpaceOnUse"><stop offset="0.01" stop-color="#5277f7"/><stop offset="0.39" stop-color="#7670f4"/><stop offset="0.53" stop-color="#836df3"/><stop offset="0.65" stop-color="#8c6df3"/><stop offset="0.85" stop-color="#a46df3"/><stop offset="1" stop-color="#bb6df3"/></linearGradient><linearGradient id="linear-gradient-37" x1="212.82" y1="355.01" x2="253.52" y2="327.88" gradientUnits="userSpaceOnUse"><stop offset="0.01" stop-color="#273b98"/><stop offset="0.23" stop-color="#2f2ba2"/><stop offset="0.4" stop-color="#361cac"/><stop offset="0.77" stop-color="#440b89"/><stop offset="1" stop-color="#4e0070"/></linearGradient><linearGradient id="linear-gradient-38" x1="251.09" y1="386.08" x2="250.72" y2="332.91" xlink:href="#linear-gradient-37"/><linearGradient id="linear-gradient-39" x1="262.1" y1="341.16" x2="265.69" y2="291.47" gradientTransform="matrix(1, 0, 0, 1, 0, 0)" xlink:href="#linear-gradient-36"/><linearGradient id="New_Gradient_Swatch_copy_36" x1="253.76" y1="292.81" x2="265.46" y2="283.15" gradientUnits="userSpaceOnUse"><stop offset="0.1" stop-color="#45108a"/><stop offset="1" stop-color="#7c1dc9"/></linearGradient><linearGradient id="linear-gradient-40" x1="425.28" y1="232.84" x2="366.88" y2="218.52" xlink:href="#linear-gradient-28"/><linearGradient id="linear-gradient-41" x1="299.47" y1="95.69" x2="305.77" y2="113.74" gradientUnits="userSpaceOnUse"><stop offset="0.01" stop-color="#00c7c5"/><stop offset="0.22" stop-color="#24a4db"/><stop offset="0.47" stop-color="#5277f7"/><stop offset="0.62" stop-color="#5b75f6"/><stop offset="0.87" stop-color="#7370f4"/><stop offset="1" stop-color="#836df3"/></linearGradient><linearGradient id="linear-gradient-42" x1="288.77" y1="127.36" x2="268.15" y2="122.3" xlink:href="#linear-gradient-28"/><linearGradient id="linear-gradient-43" x1="426.99" y1="264.72" x2="353.37" y2="246.67" xlink:href="#linear-gradient-28"/><linearGradient id="linear-gradient-44" x1="290.66" y1="92.88" x2="274.21" y2="88.85" xlink:href="#linear-gradient-28"/><linearGradient id="linear-gradient-45" x1="299.47" y1="129.95" x2="305.77" y2="148" xlink:href="#linear-gradient-41"/><linearGradient id="linear-gradient-46" x1="274.31" y1="206.37" x2="238.74" y2="197.65" xlink:href="#linear-gradient-28"/><linearGradient id="linear-gradient-47" x1="441.3" y1="246.2" x2="418.1" y2="240.52" xlink:href="#linear-gradient-28"/><linearGradient id="linear-gradient-48" x1="243.04" y1="190.74" x2="222.55" y2="185.72" xlink:href="#linear-gradient-28"/><linearGradient id="linear-gradient-49" x1="436.28" y1="279.17" x2="417.07" y2="274.46" xlink:href="#linear-gradient-28"/></defs><title>sign up</title><g class="cls-1"><g id="Layer_1" data-name="Layer 1"><g class="cls-2"><path class="cls-3" d="M378.59,388.46l-107.7-61.58c-7.59-4.38-6.63-12,2.13-17.09l36.81-21c8.76-5.05,22-5.6,29.6-1.22l107.7,61.58c7.59,4.38,6.64,12-2.12,17.08l-36.82,21.05C399.43,392.29,386.18,392.84,378.59,388.46Z"/><path class="cls-4" d="M378.58,388.14,271.44,326.88c-7.52-4.34-6.58-11.93,2.1-16.94l36.3-20.74c8.68-5,21.82-5.56,29.34-1.22l107.14,61.26c7.52,4.34,6.58,11.92-2.11,16.94l-36.29,20.74C399.23,391.93,386.1,392.48,378.58,388.14Z"/><path class="cls-5" d="M378.56,387.81,272,326.88c-7.45-4.31-6.52-11.82,2.09-16.79l35.78-20.45c8.61-5,21.63-5.5,29.08-1.2l106.58,60.93c7.45,4.3,6.52,11.82-2.09,16.79L407.64,386.6C399,391.57,386,392.11,378.56,387.81Z"/><path class="cls-6" d="M378.55,387.48l-106-60.61c-7.39-4.26-6.46-11.71,2.07-16.64l35.26-20.14c8.53-4.92,21.43-5.46,28.82-1.19l106,60.6c7.39,4.27,6.46,11.72-2.07,16.64l-35.26,20.15C398.84,391.21,385.93,391.75,378.55,387.48Z"/><path class="cls-7" d="M378.53,387.16,273.07,326.87c-7.32-4.23-6.4-11.61,2.05-16.49l34.75-19.84c8.45-4.88,21.24-5.41,28.56-1.19l105.46,60.29c7.32,4.22,6.4,11.61-2.05,16.49L407.09,386C398.64,390.85,385.85,391.38,378.53,387.16Z"/><path class="cls-8" d="M378.52,386.83l-104.9-60c-7.25-4.19-6.35-11.51,2-16.34L309.88,291c8.37-4.83,21-5.36,28.3-1.17l104.9,60c7.25,4.19,6.34,11.5-2,16.34l-34.22,19.55C398.44,390.49,385.77,391,378.52,386.83Z"/><path class="cls-9" d="M378.5,386.5,274.17,326.86c-7.19-4.15-6.29-11.39,2-16.19l33.7-19.24c8.3-4.79,20.86-5.31,28.05-1.16L442.27,349.9c7.18,4.15,6.28,11.4-2,16.19l-33.7,19.25C398.25,390.13,385.69,390.65,378.5,386.5Z"/><path class="cls-10" d="M378.49,386.18,274.71,326.86c-7.12-4.11-6.23-11.29,2-16l33.18-18.95c8.23-4.74,20.67-5.26,27.79-1.15L441.46,350c7.12,4.11,6.22,11.29-2,16L406.27,385C398.05,389.77,385.61,390.29,378.49,386.18Z"/><path class="cls-11" d="M378.47,385.85l-103.21-59c-7.06-4.07-6.17-11.19,2-15.89l32.67-18.65c8.15-4.7,20.47-5.22,27.53-1.14l103.21,59c7.06,4.07,6.18,11.19-2,15.89L406,384.71C397.85,389.41,385.53,389.92,378.47,385.85Z"/><path class="cls-12" d="M378.46,385.52,275.8,326.86c-7-4-6.11-11.09,2-15.75l32.15-18.35c8.07-4.65,20.28-5.16,27.27-1.13L439.83,350.3c7,4,6.12,11.08-1.95,15.74l-32.15,18.35C397.66,389.05,385.45,389.56,378.46,385.52Z"/><path class="cls-13" d="M378.44,385.19,276.35,326.85c-6.92-4-6.06-11,1.94-15.59l31.63-18.05c8-4.61,20.09-5.12,27-1.12L439,350.43c6.93,4,6.06,11-1.94,15.6l-31.63,18.05C397.46,388.69,385.37,389.19,378.44,385.19Z"/><path class="cls-14" d="M378.43,384.87l-101.53-58c-6.86-4-6-10.87,1.92-15.44l31.11-17.75c7.92-4.57,19.89-5.07,26.75-1.11l101.53,58c6.86,4,6,10.87-1.92,15.44l-31.11,17.75C397.26,388.33,385.29,388.83,378.43,384.87Z"/><path class="cls-15" d="M378.41,384.54l-101-57.69c-6.79-3.92-5.94-10.77,1.9-15.3l30.6-17.45c7.84-4.52,19.7-5,26.49-1.1l101,57.7c6.79,3.92,5.94,10.77-1.9,15.29l-30.59,17.45C397.07,388,385.2,388.46,378.41,384.54Z"/><path class="cls-16" d="M378.4,384.21,278,326.84c-6.73-3.88-5.88-10.66,1.88-15.14L310,294.55c7.76-4.48,19.5-5,26.23-1.09l100.41,57.37c6.72,3.88,5.88,10.66-1.88,15.15l-30.08,17.15C396.87,387.61,385.12,388.1,378.4,384.21Z"/><path class="cls-17" d="M378.38,383.89l-99.85-57.05c-6.65-3.84-5.82-10.56,1.87-15L310,295c7.69-4.43,19.32-4.92,26-1.07l99.85,57c6.66,3.85,5.82,10.56-1.86,15l-29.56,16.85C396.67,387.25,385,387.73,378.38,383.89Z"/><path class="cls-18" d="M378.37,383.56l-99.29-56.72c-6.59-3.81-5.77-10.46,1.84-14.85l29-16.55c7.61-4.39,19.13-4.87,25.72-1.07L435,351.1c6.59,3.8,5.76,10.45-1.85,14.84l-29,16.56C396.47,386.89,385,387.37,378.37,383.56Z"/><path class="cls-19" d="M378.36,383.23l-98.74-56.4c-6.52-3.76-5.7-10.34,1.83-14.69L310,295.89c7.54-4.35,18.93-4.83,25.46-1.06l98.73,56.4c6.52,3.77,5.71,10.35-1.83,14.7l-28.52,16.25C396.28,386.53,384.88,387,378.36,383.23Z"/><path class="cls-20" d="M378.34,382.91l-98.17-56.08c-6.46-3.73-5.65-10.24,1.81-14.55l28-15.95c7.46-4.3,18.74-4.77,25.2-1l98.17,56.07c6.46,3.73,5.65,10.25-1.81,14.55l-28,15.95C396.08,386.17,384.8,386.64,378.34,382.91Z"/><path class="cls-21" d="M378.33,382.58l-97.61-55.75c-6.4-3.69-5.59-10.14,1.79-14.4L310,296.78c7.38-4.26,18.55-4.73,24.94-1l97.61,55.76c6.39,3.69,5.59,10.13-1.79,14.39l-27.49,15.66C395.88,385.81,384.72,386.27,378.33,382.58Z"/><path class="cls-22" d="M378.31,382.25l-97.05-55.43c-6.32-3.65-5.53-10,1.77-14.24l27-15.36c7.3-4.21,18.35-4.67,24.68-1l97.05,55.43c6.32,3.65,5.53,10-1.78,14.25l-27,15.35C395.69,385.45,384.64,385.91,378.31,382.25Z"/><path class="cls-23" d="M378.3,381.93l-96.49-55.11c-6.26-3.61-5.48-9.92,1.75-14.1L310,297.67c7.23-4.17,18.16-4.63,24.42-1l96.49,55.1c6.26,3.62,5.47,9.93-1.76,14.1l-26.44,15.05C395.49,385.09,384.56,385.54,378.3,381.93Z"/><path class="cls-24" d="M378.28,381.6l-95.93-54.78c-6.19-3.58-5.41-9.82,1.74-13.95L310,298.11c7.15-4.12,18-4.57,24.16-1l95.93,54.78c6.19,3.58,5.41,9.83-1.74,13.95L402.44,380.6C395.29,384.73,384.47,385.18,378.28,381.6Z"/></g><path class="cls-25" d="M438.2,291.48h-1.44a10.41,10.41,0,0,0-3-2.55l-99.54-56.87c-6.63-3.82-18.19-3.34-25.84,1.07l-29.27,16.69a15.42,15.42,0,0,0-4.62,3.9h-1.7v66.92h.05c.21,2.22,1.66,4.31,4.42,5.91l99.54,56.87c6.62,3.82,18.19,3.34,25.83-1.08l29.27-16.68c3.63-2.1,5.71-4.7,6.2-7.27h.13Z"/><path class="cls-26" d="M376.77,317.56l-99.54-56.87c-6.62-3.82-5.79-10.49,1.85-14.91l29.27-16.68c7.65-4.42,19.22-4.9,25.84-1.07l99.54,56.86c6.62,3.83,5.79,10.5-1.86,14.92L402.6,316.49C395,320.91,383.39,321.39,376.77,317.56Z"/><path class="cls-27" d="M431.87,298.65,402.6,315.34c-7.64,4.41-19.21,4.89-25.83,1.07l-99.54-56.87c-2.66-1.53-4.09-3.53-4.39-5.65-.41,2.75,1,5.44,4.39,7.38l99.54,56.87c6.62,3.82,18.19,3.34,25.83-1.07l29.27-16.68c4.58-2.65,6.69-6.1,6.25-9.27C437.73,293.78,435.63,296.49,431.87,298.65Z"/><g class="cls-28"><path class="cls-3" d="M397.32,314.64a16.66,16.66,0,0,1-8.34-2l-42.43-25-42.43-25a8.82,8.82,0,0,1-4.79-7.62c0-3.38,2.1-6.54,5.76-8.65l16.18-14.81a20.54,20.54,0,0,1,10.13-2.57,16.77,16.77,0,0,1,8.34,2l46.84,26.31,46.85,26.3a8.83,8.83,0,0,1,4.79,7.62c0,3.39-2.1,6.54-5.76,8.65l-25,12.27A20.51,20.51,0,0,1,397.32,314.64Z"/><path class="cls-29" d="M305.19,246.56,312.5,240c.11-.07,8.66-7.78,8.8-7.78a19.8,19.8,0,0,1,6.75-2.15,23,23,0,0,1,3.22-.18,16.88,16.88,0,0,1,8.2,2.06l43.95,24.69,2.26,1.27,46.21,26a9.82,9.82,0,0,1,4.26,4.66,7.92,7.92,0,0,1,.57,2.77c.07,3.31-2,6.44-5.61,8.54l-8.64,4.24c-.19.1-16,7.71-16.11,7.62a20.75,20.75,0,0,1-10,2.27,17,17,0,0,1-8.2-2.06l-36.55-21.54-5.33-3.15-41.89-24.68a9.82,9.82,0,0,1-4.32-4.81,7.83,7.83,0,0,1-.51-2.63C299.51,251.79,301.55,248.66,305.19,246.56Z"/><path class="cls-30" d="M305.29,246.84l7.26-6.39c.23-.13,8.5-7.49,8.77-7.48a20.12,20.12,0,0,1,6.67-2,25.46,25.46,0,0,1,3.16-.12,17.28,17.28,0,0,1,8.06,2.11l43.34,24.36,2.23,1.26,45.57,25.61a10.17,10.17,0,0,1,4.25,4.55,8.05,8.05,0,0,1,.62,2.7c.13,3.24-1.84,6.34-5.45,8.42l-8.53,4.19c-.37.21-15.65,7.45-16,7.26-2.61,1.5-6.49,2-9.8,2a17.36,17.36,0,0,1-8.07-2.11L351.33,290l-5.27-3.1-41.35-24.33a10.24,10.24,0,0,1-4.31-4.69,8.27,8.27,0,0,1-.56-2.55C299.7,252,301.67,248.93,305.29,246.84Z"/><path class="cls-31" d="M305.38,247.12l7.22-6.22c.34-.19,8.34-7.2,8.74-7.18a20.57,20.57,0,0,1,6.58-1.81,29.26,29.26,0,0,1,3.11,0,17.55,17.55,0,0,1,7.91,2.16l42.73,24,2.2,1.24,44.94,25.27a10.67,10.67,0,0,1,4.24,4.42,8.09,8.09,0,0,1,.67,2.63c.2,3.18-1.71,6.25-5.3,8.32L420,304.06c-.56.32-15.35,7.19-15.83,6.91-2.47,1.42-6.5,1.66-9.63,1.66a17.73,17.73,0,0,1-7.93-2.16L351,289.54l-5.2-3.05L305,262.5a10.56,10.56,0,0,1-4.3-4.57,7.93,7.93,0,0,1-.62-2.48C299.88,252.26,301.79,249.19,305.38,247.12Z"/><path class="cls-32" d="M305.48,247.4l7.17-6.05c.45-.26,8.18-6.91,8.72-6.89a20.92,20.92,0,0,1,6.49-1.63c.88-.1,2.15,0,3,0a18,18,0,0,1,7.78,2.21l42.12,23.7L383,260l44.3,24.92a11.18,11.18,0,0,1,4.23,4.31,8,8,0,0,1,.72,2.56c.27,3.11-1.58,6.15-5.14,8.2l-8.31,4.08c-.74.43-15,6.93-15.68,6.56-2.33,1.34-6.51,1.36-9.47,1.36a18.14,18.14,0,0,1-7.79-2.22L350.7,289.13l-5.12-3-40.27-23.63A11.22,11.22,0,0,1,301,258a8.31,8.31,0,0,1-.67-2.42C300.06,252.5,301.91,249.46,305.48,247.4Z"/><path class="cls-33" d="M305.58,247.68l7.13-5.88c.56-.32,8-6.62,8.68-6.59a21.16,21.16,0,0,1,6.41-1.46c.82-.08,2.14.09,3,.09a18.37,18.37,0,0,1,7.63,2.26l41.52,23.37,2.13,1.2,43.68,24.58a11.81,11.81,0,0,1,4.21,4.19,8.29,8.29,0,0,1,.78,2.49c.33,3-1.46,6.05-5,8.09l-8.19,4c-.93.54-14.73,6.68-15.54,6.21-2.19,1.27-6.52,1.06-9.3,1.06A18.66,18.66,0,0,1,385,309l-34.65-20.31-5.05-3-39.73-23.28a11.87,11.87,0,0,1-4.3-4.33,8.27,8.27,0,0,1-.71-2.35C300.25,252.74,302,249.72,305.58,247.68Z"/><path class="cls-34" d="M305.67,248l7.09-5.7c.67-.39,7.85-6.34,8.65-6.3a21.67,21.67,0,0,1,6.32-1.29c.78-.07,2.13.15,2.92.15a19,19,0,0,1,7.49,2.31l40.92,23,2.1,1.19,43,24.24a12.52,12.52,0,0,1,4.2,4.07,8.31,8.31,0,0,1,.83,2.41c.4,3-1.33,6-4.84,8L416.31,304c-1.12.65-14.43,6.42-15.4,5.86-2.05,1.18-6.53.75-9.14.75a19.18,19.18,0,0,1-7.52-2.32l-34.17-20-5-2.91-39.18-22.94a12.37,12.37,0,0,1-4.29-4.21,8.3,8.3,0,0,1-.77-2.28C300.43,253,302.15,250,305.67,248Z"/><path class="cls-35" d="M305.77,248.24l7-5.53c.78-.46,7.69-6.05,8.63-6,2-.74,4.17-.64,6.23-1.12a17.56,17.56,0,0,1,2.86.22c2.12,0,5.83,1.48,7.35,2.36l40.3,22.71,2.07,1.17,42.41,23.89a13.2,13.2,0,0,1,4.19,4,8,8,0,0,1,.88,2.34c.47,2.91-1.2,5.86-4.69,7.87l-8,3.9c-1.31.76-14.13,6.16-15.26,5.5-1.92,1.11-6.53.46-9,.46-2.12,0-5.86-1.51-7.38-2.38l-33.71-19.7L344.85,285l-38.64-22.58a13.39,13.39,0,0,1-4.29-4.09,8.52,8.52,0,0,1-.82-2.22C300.61,253.22,302.27,250.26,305.77,248.24Z"/><path class="cls-36" d="M305.87,248.52l7-5.36c.89-.52,7.53-5.76,8.6-5.71,2-.68,4.15-.45,6.14-.94a16.84,16.84,0,0,1,2.8.29c2,0,5.8,1.59,7.21,2.41l39.7,22.38,2,1.15,41.77,23.55a14.24,14.24,0,0,1,4.18,3.84,8.37,8.37,0,0,1,.93,2.27c.54,2.84-1.07,5.76-4.53,7.76L413.84,304c-1.49.87-13.81,5.9-15.11,5.15-1.78,1-6.54.15-8.8.15-2,0-5.84-1.62-7.25-2.43l-33.23-19.39-4.84-2.83-38.1-22.23a14.15,14.15,0,0,1-4.28-4,8.59,8.59,0,0,1-.87-2.15C300.79,253.46,302.39,250.52,305.87,248.52Z"/><path class="cls-37" d="M306,248.8l6.94-5.19c1-.58,7.37-5.47,8.58-5.41,1.95-.62,4.11-.26,6.05-.77.6-.16,2.11.35,2.74.35,1.82,0,5.77,1.71,7.07,2.46l39.09,22.06,2,1.13,41.14,23.2a15.78,15.78,0,0,1,4.18,3.72,9.24,9.24,0,0,1,1,2.2c.61,2.78-.94,5.67-4.38,7.65L412.61,304c-1.68,1-13.51,5.64-15,4.8-1.64.94-6.55-.16-8.64-.16-1.81,0-5.81-1.73-7.11-2.48l-32.75-19.09-4.77-2.78L306.81,262.4a15.52,15.52,0,0,1-4.28-3.84,9.73,9.73,0,0,1-.92-2.08C301,253.69,302.51,250.79,306,248.8Z"/><path class="cls-38" d="M306.06,249.08l6.9-5c1.12-.65,7.21-5.17,8.55-5.11,1.94-.56,4.08-.08,6-.6.55-.15,2.11.42,2.69.42,1.66,0,5.73,1.82,6.92,2.51L375.57,263l2,1.12L418,287a17.13,17.13,0,0,1,4.17,3.6,9,9,0,0,1,1,2.13c.68,2.71-.81,5.57-4.22,7.54L411.38,304c-1.87,1.08-13.21,5.37-14.83,4.44-1.5.87-6.56-.46-8.47-.46-1.67,0-5.78-1.84-7-2.53l-32.29-18.78-4.7-2.73-37-21.54a16.9,16.9,0,0,1-4.27-3.72,10,10,0,0,1-1-2C301.15,253.93,302.63,251.06,306.06,249.08Z"/><path class="cls-39" d="M306.16,249.36l6.85-4.85c1.23-.71,7.05-4.88,8.52-4.81,1.94-.51,4.05.11,5.88-.43.5-.14,2.1.49,2.62.49,1.52,0,5.7,1.93,6.79,2.56l37.87,21.39,1.94,1.1,39.87,22.52a18.62,18.62,0,0,1,4.16,3.48,9.7,9.7,0,0,1,1.08,2.06c.75,2.64-.69,5.47-4.08,7.42L410.15,304c-2.06,1.19-12.91,5.11-14.68,4.09-1.37.79-6.58-.76-8.32-.76-1.51,0-5.75-2-6.83-2.59l-31.81-18.47-4.63-2.69L307.4,262.37a18.73,18.73,0,0,1-4.26-3.61,10.41,10.41,0,0,1-1-1.94C301.33,254.17,302.75,251.32,306.16,249.36Z"/><path class="cls-40" d="M306.26,249.64l6.8-4.68c1.35-.77,6.89-4.59,8.5-4.51,1.93-.45,4,.3,5.79-.26.44-.14,2.08.56,2.56.56,1.36,0,5.67,2,6.64,2.6l37.27,21.07,1.91,1.08L415,287.67c.89.51,3.84,2.55,4.15,3.37a5.73,5.73,0,0,1,1.13,2c.82,2.58-.56,5.38-3.92,7.32L408.91,304c-2.24,1.3-12.59,4.85-14.53,3.73-1.24.71-6.58-1.06-8.15-1.06-1.36,0-5.72-2.08-6.7-2.64L348.2,285.83l-4.56-2.65L307.7,262.35c-.91-.52-4-2.63-4.26-3.48a5.56,5.56,0,0,1-1.07-1.88C301.5,254.41,302.87,251.59,306.26,249.64Z"/><path class="cls-41" d="M306.35,249.92l6.76-4.5c1.46-.85,6.73-4.31,8.47-4.23,1.93-.38,4,.49,5.7-.08.39-.13,2.08.62,2.5.62,1.21,0,5.64,2.16,6.51,2.66L373,265.13l1.87,1.06L413.42,288c.79.45,3.86,2.52,4.14,3.25a5.46,5.46,0,0,1,1.18,1.91c.89,2.51-.43,5.28-3.77,7.2L407.68,304c-2.43,1.4-12.29,4.59-14.39,3.38-1.1.63-6.59-1.37-8-1.37-1.22,0-5.7-2.19-6.57-2.69l-30.86-17.86-4.48-2.59L308,262.33c-.81-.46-4-2.6-4.25-3.36a5.47,5.47,0,0,1-1.13-1.81C301.68,254.65,303,251.85,306.35,249.92Z"/><path class="cls-42" d="M306.45,250.2l6.71-4.33c1.57-.91,6.57-4,8.45-3.93a14.65,14.65,0,0,1,5.61.09c.36-.05,2.07.69,2.44.69,1.06,0,5.6,2.27,6.36,2.71l36.05,20.4,1.85,1.05,38,21.48c.69.4,3.89,2.5,4.13,3.14a5.27,5.27,0,0,1,1.23,1.84c1,2.44-.3,5.18-3.61,7.09l-7.18,3.51c-2.61,1.51-12,4.33-14.25,3-1,.55-6.6-1.67-7.82-1.67-1.06,0-5.66-2.31-6.42-2.75L347.57,285l-4.42-2.55L308.3,262.32c-.71-.41-4-2.59-4.25-3.25a5.27,5.27,0,0,1-1.18-1.74C301.86,254.88,303.12,252.12,306.45,250.2Z"/><path class="cls-43" d="M306.55,250.48l6.66-4.16c1.69-1,6.41-3.73,8.42-3.63a14.07,14.07,0,0,1,5.52.26c.31,0,2.07.76,2.39.76.9,0,5.56,2.38,6.22,2.76l35.44,20.07,1.81,1,37.33,21.14c.59.34,3.91,2.47,4.12,3a5.15,5.15,0,0,1,1.28,1.77c1,2.38-.17,5.09-3.46,7l-7.06,3.46c-2.8,1.62-11.69,4.07-14.11,2.67-.82.48-6.61-2-7.65-2s-5.64-2.42-6.29-2.8l-29.91-17.24-4.35-2.51L308.6,262.3c-.61-.35-4-2.56-4.25-3.12a5.19,5.19,0,0,1-1.22-1.68C302,255.12,303.24,252.39,306.55,250.48Z"/><path class="cls-44" d="M306.64,250.75l6.63-4c1.79-1,6.23-3.44,8.38-3.33a13.54,13.54,0,0,1,5.44.44c.25,0,2.06.81,2.32.81.76,0,5.54,2.5,6.08,2.81l34.84,19.75,1.78,1,36.69,20.79c.49.29,3.94,2.45,4.11,2.9a5.41,5.41,0,0,1,1.34,1.7c1.11,2.31-.05,5-3.31,6.87l-7,3.4c-3,1.72-11.37,3.81-14,2.32-.68.39-6.62-2.28-7.49-2.28s-5.61-2.54-6.15-2.85l-29.44-16.94-4.27-2.46L308.9,262.28c-.51-.29-4.07-2.53-4.24-3a5.25,5.25,0,0,1-1.28-1.6C302.21,255.36,303.36,252.65,306.64,250.75Z"/><path class="cls-45" d="M306.74,251l6.58-3.81c1.9-1.1,6.07-3.15,8.36-3a13.08,13.08,0,0,1,5.34.62c.21,0,2.06.88,2.27.88.6,0,5.5,2.61,5.93,2.86L369.46,268l1.74,1,36.06,20.45a32.3,32.3,0,0,1,4.1,2.78,5.13,5.13,0,0,1,1.39,1.63c1.19,2.23.08,4.89-3.16,6.75l-6.84,3.35c-3.17,1.83-11.07,3.55-13.82,2-.55.32-6.62-2.58-7.32-2.58s-5.58-2.65-6-2.9l-29-16.63-4.21-2.41-33.23-19.08a34.43,34.43,0,0,1-4.23-2.88,5.42,5.42,0,0,1-1.33-1.54C302.38,255.6,303.48,252.92,306.74,251Z"/><path class="cls-46" d="M306.84,251.31l6.53-3.64c2-1.16,5.91-2.86,8.33-2.74a12.56,12.56,0,0,1,5.26.79c.15,0,2.05.95,2.2.95a61.57,61.57,0,0,1,5.8,2.91l33.62,19.08,1.72,1,35.42,20.11a41.16,41.16,0,0,1,4.09,2.66,5.24,5.24,0,0,1,1.44,1.56c1.26,2.16.21,4.79-3,6.64l-6.73,3.29c-3.36,1.94-10.77,3.29-13.68,1.61-.41.24-6.63-2.88-7.15-2.88a62.13,62.13,0,0,1-5.88-3l-28.49-16.32L342.18,281l-32.69-18.73a45.36,45.36,0,0,1-4.23-2.76,5.1,5.1,0,0,1-1.37-1.47C302.55,255.84,303.6,253.18,306.84,251.31Z"/><path class="cls-47" d="M306.93,251.59l6.49-3.47c2.13-1.23,5.75-2.57,8.3-2.44a12,12,0,0,1,5.17,1c.11,0,2,1,2.15,1,.3,0,5.44,2.83,5.65,3l33,18.76,1.68,1,34.79,19.76c.2.12,4,2.37,4.08,2.55a5.12,5.12,0,0,1,1.49,1.48c1.34,2.1.34,4.7-2.85,6.53l-6.61,3.24c-3.55,2.05-10.46,3-13.54,1.26-.27.15-6.64-3.19-7-3.19s-5.52-2.88-5.74-3l-28-16-4.06-2.32-32.15-18.38c-.2-.11-4.15-2.45-4.22-2.64a5.17,5.17,0,0,1-1.43-1.4C302.73,256.09,303.72,253.45,306.93,251.59Z"/><path class="cls-48" d="M307,251.87l6.44-3.29a16.57,16.57,0,0,1,8.28-2.15,11.62,11.62,0,0,1,5.08,1.13c.05,0,2,1.08,2.08,1.08s5.41,3,5.52,3l32.41,18.43,1.65.94,34.15,19.42c.1.05,4,2.34,4.07,2.43a5.17,5.17,0,0,1,1.54,1.41c1.42,2,.47,4.6-2.69,6.42l-6.51,3.18c-3.73,2.15-10.15,2.77-13.39.9-.13.08-6.65-3.49-6.82-3.49s-5.5-3-5.61-3.06l-27.54-15.71-4-2.28-31.61-18c-.1-.06-4.18-2.43-4.22-2.52a5.39,5.39,0,0,1-1.48-1.34C302.9,256.33,303.84,253.72,307,251.87Z"/><path class="cls-49" d="M384.58,304.42l-39.2-22.31-39.2-22.31c-3.4-2-3-5.38.95-7.65l6.39-3.12c3.92-2.27,9.85-2.51,13.25-.55L366,270.79l39.2,22.31c3.39,2,3,5.38-1,7.64l-6.39,3.13C393.9,306.13,388,306.38,384.58,304.42Z"/></g><g class="cls-28"><path class="cls-3" d="M322.09,398a12.43,12.43,0,0,1-6.21-1.49l-31.56-18.63-31.57-18.62a6.56,6.56,0,0,1-3.56-5.67c0-2.52,1.56-4.87,4.28-6.44L274.82,331a15.25,15.25,0,0,1,7.54-1.92,12.4,12.4,0,0,1,6.2,1.5l34.85,19.57,34.86,19.57a6.57,6.57,0,0,1,3.56,5.67c0,2.52-1.56,4.87-4.29,6.44l-27.92,14.19A15.31,15.31,0,0,1,322.09,398Z"/><path class="cls-29" d="M253.57,347.39l2.06-1.56c.15-.09,12.67-9.36,12.8-9.29l6.26-4.42a15.36,15.36,0,0,1,7.39-1.69,12.59,12.59,0,0,1,6.09,1.52l26.31,14.78,8,4.5,34.32,19.28a7.87,7.87,0,0,1,2.55,2.32,5.9,5.9,0,0,1,1,3.22c0,2.47-1.5,4.78-4.2,6.34l-2.27,1.18c-.15.09-13.84,6.94-14,6.86l-11.29,5.35a15.43,15.43,0,0,1-7.4,1.69,12.48,12.48,0,0,1-6.09-1.53l-21.24-12.51-9.87-5.82-31.12-18.34a7.82,7.82,0,0,1-2.64-2.45,5.94,5.94,0,0,1-.93-3.08C249.34,351.27,250.87,349,253.57,347.39Z"/><path class="cls-30" d="M253.66,347.68l2-1.55c.3-.17,12.43-9,12.69-8.84l6.18-4.07a15.42,15.42,0,0,1,7.26-1.48,12.78,12.78,0,0,1,6,1.56l25.9,14.55,7.89,4.44,33.78,19a7.84,7.84,0,0,1,2.53,2.26,5.87,5.87,0,0,1,1.05,3.14c.06,2.41-1.44,4.7-4.11,6.24l-2.22,1.19c-.3.17-13.54,6.69-13.8,6.54l-11.1,4.85a15.45,15.45,0,0,1-7.26,1.48,12.78,12.78,0,0,1-6-1.56l-20.92-12.31-9.73-5.73-30.66-18.05a8.1,8.1,0,0,1-2.62-2.39,5.84,5.84,0,0,1-1-3C249.49,351.51,251,349.22,253.66,347.68Z"/><path class="cls-31" d="M253.75,348l2-1.53c.44-.26,12.19-8.62,12.57-8.4l6.1-3.71c1.84-1.06,4.79-1.27,7.12-1.27a13,13,0,0,1,5.87,1.6L312.88,349l7.77,4.36L353.9,372a8.39,8.39,0,0,1,2.5,2.2,5.76,5.76,0,0,1,1.08,3.07c.09,2.36-1.37,4.62-4,6.15l-2.17,1.18c-.45.26-13.24,6.45-13.63,6.22l-10.92,4.37c-1.84,1.06-4.8,1.26-7.13,1.26a13,13,0,0,1-5.87-1.59l-20.61-12.12-9.59-5.63-30.21-17.76a8.41,8.41,0,0,1-2.59-2.34,5.72,5.72,0,0,1-1-2.93C249.64,351.75,251.1,349.49,253.75,348Z"/><path class="cls-32" d="M253.84,348.24l1.95-1.51c.6-.34,12-8.25,12.46-8l6-3.36c1.74-1,4.79-1,7-1A13.27,13.27,0,0,1,287,336l25.07,14.11,7.64,4.3,32.72,18.4a8.7,8.7,0,0,1,2.48,2.15,5.74,5.74,0,0,1,1.11,3c.11,2.32-1.31,4.54-3.93,6.06L350,385.18c-.59.34-12.94,6.19-13.45,5.9L325.77,395c-1.73,1-4.79,1-7,1a13.14,13.14,0,0,1-5.75-1.63l-20.31-11.91-9.44-5.55-29.75-17.47a8.79,8.79,0,0,1-2.58-2.27,5.71,5.71,0,0,1-1-2.86C249.8,352,251.21,349.76,253.84,348.24Z"/><path class="cls-33" d="M253.93,348.53l1.92-1.5c.74-.43,11.7-7.89,12.35-7.51l5.94-3c1.63-.94,4.77-.83,6.85-.83a13.44,13.44,0,0,1,5.63,1.66l24.66,13.88,7.52,4.23L351,373.56a9.36,9.36,0,0,1,2.45,2.09,5.5,5.5,0,0,1,1.14,2.91c.15,2.27-1.23,4.46-3.83,6l-2.08,1.19c-.74.43-12.64,6-13.28,5.58l-10.57,3.4c-1.63.94-4.78.82-6.85.82a13.53,13.53,0,0,1-5.65-1.66l-20-11.72L283,376.68,253.72,359.5a9.19,9.19,0,0,1-2.55-2.21,5.58,5.58,0,0,1-1.06-2.79C250,352.23,251.33,350,253.93,348.53Z"/><path class="cls-34" d="M254,348.81l1.88-1.48c.89-.52,11.47-7.52,12.24-7.07l5.86-2.65c1.53-.88,4.77-.61,6.71-.61a13.85,13.85,0,0,1,5.52,1.69l24.25,13.65,7.4,4.16,31.64,17.83a9.58,9.58,0,0,1,2.43,2,5.49,5.49,0,0,1,1.17,2.83c.18,2.21-1.17,4.38-3.74,5.86l-2,1.2c-.89.51-12.34,5.7-13.11,5.25l-10.39,2.91c-1.53.89-4.78.61-6.72.61a14.06,14.06,0,0,1-5.53-1.69l-19.68-11.52-9.15-5.36-28.85-16.89a9.79,9.79,0,0,1-2.53-2.16,5.47,5.47,0,0,1-1.1-2.71C250.1,352.47,251.44,350.3,254,348.81Z"/><path class="cls-35" d="M254.12,349.09l1.84-1.46c1-.6,11.22-7.15,12.12-6.63l5.78-2.3c1.43-.82,4.76-.39,6.58-.39a14.4,14.4,0,0,1,5.41,1.72l23.84,13.43,7.26,4.1,31.12,17.53a10.24,10.24,0,0,1,2.4,2,5.44,5.44,0,0,1,1.2,2.76c.2,2.16-1.1,4.3-3.65,5.77l-2,1.19c-1.05.6-12,5.46-13,4.94l-10.2,2.42c-1.43.83-4.77.39-6.58.39a14.45,14.45,0,0,1-5.43-1.73l-19.36-11.32-9-5.26-28.4-16.6a10.85,10.85,0,0,1-2.51-2.1,5.61,5.61,0,0,1-1.13-2.64C250.26,352.71,251.56,350.57,254.12,349.09Z"/><path class="cls-36" d="M254.21,349.38l1.8-1.45c1.19-.69,11-6.78,12-6.19l5.71-1.94c1.32-.76,4.75-.18,6.43-.18a14.74,14.74,0,0,1,5.3,1.76l23.43,13.21,7.14,4,30.58,17.24a11.18,11.18,0,0,1,2.38,1.92,5.33,5.33,0,0,1,1.23,2.68c.23,2.11-1,4.21-3.56,5.67l-1.94,1.2c-1.19.68-11.74,5.2-12.77,4.61l-10,1.94c-1.32.76-4.76.17-6.44.17a15.05,15.05,0,0,1-5.31-1.76l-19.06-11.12L282.25,376l-27.94-16.31a11.2,11.2,0,0,1-2.49-2,5.48,5.48,0,0,1-1.16-2.57C250.41,353,251.68,350.84,254.21,349.38Z"/><path class="cls-37" d="M254.3,349.66l1.77-1.43c1.33-.77,10.74-6.41,11.9-5.74l5.62-1.59c1.22-.71,4.74,0,6.3,0a15.43,15.43,0,0,1,5.18,1.78l23,13,7,4,30,16.94a11.72,11.72,0,0,1,2.36,1.87,5.31,5.31,0,0,1,1.26,2.6c.26,2.06-1,4.13-3.47,5.57l-1.89,1.2c-1.34.77-11.44,5-12.6,4.29L321,393.6c-1.22.7-4.75-.05-6.31-.05a15.56,15.56,0,0,1-5.2-1.8l-18.74-10.92L282,375.75l-27.48-16a12,12,0,0,1-2.47-2,5.44,5.44,0,0,1-1.2-2.49C250.56,353.19,251.79,351.11,254.3,349.66Z"/><path class="cls-38" d="M254.39,349.94l1.73-1.41c1.49-.86,10.5-6,11.79-5.3l5.54-1.24c1.12-.64,4.74.26,6.16.26,1.24,0,4.18,1.31,5.07,1.82l22.61,12.76,6.89,3.89,29.51,16.66a12.71,12.71,0,0,1,2.34,1.8,5.34,5.34,0,0,1,1.29,2.52c.29,2-.91,4.06-3.38,5.48l-1.84,1.2c-1.49.86-11.14,4.72-12.43,4l-9.67,1c-1.12.65-4.75-.26-6.17-.26-1.24,0-4.21-1.32-5.09-1.83l-18.43-10.72-8.57-5-27-15.73a13.19,13.19,0,0,1-2.44-1.92,5.39,5.39,0,0,1-1.24-2.42C250.71,353.43,251.91,351.38,254.39,349.94Z"/><path class="cls-39" d="M254.48,350.23l1.69-1.4c1.64-.94,10.26-5.68,11.68-4.86l5.47-.88c1-.59,4.73.48,6,.48,1.13,0,4.15,1.38,5,1.85L306.49,358l6.77,3.83,29,16.36a14.29,14.29,0,0,1,2.31,1.75,5.35,5.35,0,0,1,1.32,2.44c.32,2-.85,4-3.29,5.38l-1.8,1.21c-1.63.94-10.84,4.47-12.25,3.65l-9.49.48c-1,.59-4.74-.48-6-.48-1.12,0-4.17-1.4-5-1.86L289.9,380.18l-8.42-4.89L254.9,359.84a14,14,0,0,1-2.43-1.85,5.53,5.53,0,0,1-1.26-2.35C250.86,353.68,252,351.65,254.48,350.23Z"/><path class="cls-40" d="M254.57,350.51l1.66-1.38c1.78-1,10-5.31,11.56-4.42l5.39-.52c.92-.53,4.72.69,5.89.69,1,0,4.11,1.46,4.84,1.88l21.78,12.31,6.65,3.76,28.44,16.07a16.15,16.15,0,0,1,2.29,1.69,5.4,5.4,0,0,1,1.35,2.37c.35,1.91-.78,3.89-3.2,5.29l-1.75,1.2c-1.78,1-10.54,4.23-12.09,3.33h-9.31c-.91.53-4.73-.7-5.9-.7-1,0-4.14-1.48-4.86-1.9L289.5,379.86l-8.28-4.81L255.09,359.9a15.34,15.34,0,0,1-2.4-1.8,5.48,5.48,0,0,1-1.3-2.27C251,353.92,252.14,351.92,254.57,350.51Z"/><path class="cls-41" d="M254.67,350.8l1.61-1.37c1.94-1.11,9.78-4.94,11.46-4l5.3-.18c.82-.47,4.72.91,5.75.91s4.08,1.55,4.73,1.92l21.37,12.09,6.53,3.68,27.9,15.78a17.83,17.83,0,0,1,2.27,1.64,5.34,5.34,0,0,1,1.38,2.29c.38,1.86-.72,3.81-3.11,5.19l-1.7,1.21c-1.93,1.12-10.24,4-11.92,3l-9.13-.49c-.81.47-4.73-.92-5.76-.92s-4.11-1.56-4.76-1.93L289.1,379.53,281,374.82,255.29,360a18.24,18.24,0,0,1-2.38-1.74,5.36,5.36,0,0,1-1.33-2.2C251.17,354.16,252.26,352.19,254.67,350.8Z"/><path class="cls-42" d="M254.76,351.08l1.58-1.35c2.08-1.2,9.53-4.57,11.34-3.53l5.22.18c.72-.41,4.71,1.13,5.62,1.13s4.05,1.62,4.61,1.94l21,11.87,6.39,3.62,27.37,15.49a20,20,0,0,1,2.25,1.58,5.45,5.45,0,0,1,1.41,2.21c.41,1.81-.66,3.73-3,5.09l-1.65,1.21c-2.09,1.21-10,3.73-11.75,2.69l-9-1c-.71.41-4.72-1.14-5.63-1.14s-4.08-1.64-4.64-2l-17.19-9.93-8-4.62L255.48,360a21.09,21.09,0,0,1-2.36-1.67,5.64,5.64,0,0,1-1.36-2.13C251.32,354.4,252.37,352.46,254.76,351.08Z"/><path class="cls-43" d="M254.85,351.36l1.54-1.33c2.23-1.29,9.3-4.2,11.23-3.09l5.15.54c.61-.36,4.7,1.34,5.47,1.34a24,24,0,0,1,4.5,2l20.56,11.64,6.27,3.55,26.83,15.2a23.35,23.35,0,0,1,2.22,1.52,5.43,5.43,0,0,1,1.45,2.14c.44,1.75-.59,3.64-2.93,5l-1.61,1.22c-2.23,1.29-9.64,3.48-11.57,2.36L315.19,392c-.61.36-4.72-1.35-5.49-1.35s-4.05-1.72-4.54-2l-16.87-9.73-7.84-4.52-24.77-14.29a24.07,24.07,0,0,1-2.34-1.61,5.74,5.74,0,0,1-1.4-2C251.47,354.64,252.49,352.72,254.85,351.36Z"/><path class="cls-44" d="M254.94,351.65l1.51-1.32c2.38-1.37,9.05-3.84,11.11-2.65l5.07.89c.51-.29,4.69,1.56,5.34,1.56a27.78,27.78,0,0,1,4.39,2l20.14,11.41,6.15,3.49L335,382c.26.15,2,1.27,2.19,1.47a5.28,5.28,0,0,1,1.47,2.05c.47,1.71-.52,3.57-2.83,4.91l-1.56,1.21c-2.38,1.38-9.34,3.24-11.41,2.05l-8.58-1.95c-.51.29-4.71-1.57-5.36-1.57a28.64,28.64,0,0,1-4.42-2l-16.56-9.53-7.7-4.44-24.32-14a18.65,18.65,0,0,1-2.31-1.56,3.9,3.9,0,0,1-1.43-2C251.62,354.88,252.6,353,254.94,351.65Z"/><path class="cls-45" d="M255,351.93l1.47-1.3c2.53-1.46,8.81-3.47,11-2.2l5,1.24c.41-.23,4.69,1.78,5.2,1.78a34.35,34.35,0,0,1,4.28,2l19.73,11.19,6,3.42,25.77,14.61a23.17,23.17,0,0,1,2.17,1.41,3.88,3.88,0,0,1,1.5,2c.5,1.66-.45,3.49-2.74,4.81l-1.51,1.22c-2.53,1.46-9.05,3-11.24,1.72l-8.41-2.43c-.4.23-4.7-1.79-5.22-1.79a34.18,34.18,0,0,1-4.31-2.07l-16.25-9.33-7.55-4.34-23.86-13.7a24,24,0,0,1-2.3-1.5,3.88,3.88,0,0,1-1.46-1.9C251.77,355.12,252.72,353.26,255,351.93Z"/><path class="cls-46" d="M255.12,352.21l1.44-1.28c2.67-1.54,8.57-3.1,10.89-1.76l4.91,1.6c.3-.18,4.67,2,5.06,2a42.46,42.46,0,0,1,4.16,2.08l19.32,11,5.9,3.34L332,383.48c.16.09,2.06,1.22,2.15,1.35a3.78,3.78,0,0,1,1.53,1.9c.53,1.61-.39,3.41-2.65,4.71l-1.46,1.22c-2.68,1.55-8.75,2.74-11.07,1.4l-8.23-2.91c-.3.17-4.69-2-5.08-2A43.28,43.28,0,0,1,303,387l-15.94-9.13-7.41-4.25-23.41-13.42c-.16-.09-2.18-1.29-2.27-1.43A3.85,3.85,0,0,1,252.5,357C251.92,355.36,252.84,353.53,255.12,352.21Z"/><path class="cls-47" d="M255.21,352.5l1.4-1.27c2.83-1.63,8.33-2.73,10.78-1.32l4.83,1.95c.2-.11,4.67,2.22,4.93,2.22s3.88,2,4,2.11l18.91,10.74,5.78,3.28,24.69,14c.11.06,2.07,1.21,2.13,1.29a3.72,3.72,0,0,1,1.56,1.83c.57,1.55-.32,3.32-2.56,4.61l-1.42,1.23c-2.82,1.63-8.44,2.49-10.89,1.08l-8.05-3.41c-.21.12-4.69-2.22-4.95-2.22s-3.92-2-4.09-2.13l-15.62-8.94-7.27-4.15-23-13.13c-.11-.06-2.2-1.28-2.25-1.38a3.75,3.75,0,0,1-1.53-1.75C252.07,355.6,253,353.8,255.21,352.5Z"/><path class="cls-48" d="M255.31,352.78l1.36-1.24c3-1.72,8.09-2.37,10.66-.88l4.75,2.3c.1-.06,4.66,2.43,4.79,2.43s3.85,2.09,3.93,2.14l18.5,10.52,5.65,3.21L329.12,385c.05,0,2.07,1.2,2.1,1.24a3.74,3.74,0,0,1,1.59,1.75c.6,1.5-.26,3.24-2.47,4.52L329,393.73c-3,1.72-8.15,2.25-10.72.76l-7.87-3.89c-.11.06-4.68-2.44-4.81-2.44s-3.9-2.12-4-2.17l-15.31-8.73-7.13-4.07-22.5-12.83s-2.2-1.27-2.23-1.32a3.86,3.86,0,0,1-1.56-1.68C252.22,355.85,253.07,354.07,255.31,352.78Z"/><path class="cls-49" d="M317.1,394.7l-31.23-17.77-31.23-17.77c-2.7-1.57-2.37-4.29.76-6.1l1.32-1.22c3.12-1.81,7.85-2,10.55-.44l31.24,17.77L329.74,387c2.7,1.56,2.36,4.29-.76,6.09l-1.32,1.23C324.53,396.07,319.81,396.27,317.1,394.7Z"/></g><path class="cls-50" d="M388,299.31l-69.28-40c-7.81-4.51-14.15-16.61-14.15-27V47.77c0-5.3-4.35-6.47-1.72-8.37.1-.07,10.58-4.77,10.69-4.81a10.22,10.22,0,0,1,9.57.56l69.28,40c7.81,4.52,14.15,16.62,14.15,27v184.5c0,5.54-1.79,9.49-4.64,11.29-.17.11-11.88,5.53-12.07,5.59C387.27,304.4,391.39,301.28,388,299.31Z"/><path class="cls-51" d="M388,299.31l-69.28-40c-7.81-4.51-14.15-16.61-14.15-27V47.77c0-5.3-4.35-6.47-1.72-8.37.1-.07,10.41-4.7,10.52-4.75a10.22,10.22,0,0,1,9.57.56l69.28,40c7.81,4.51,14.15,16.61,14.15,27V286.75c0,5.53-1.79,9.48-4.64,11.29-.17.1-11.71,5.46-11.9,5.52C387.27,304.4,391.39,301.28,388,299.31Z"/><path class="cls-52" d="M388,299.31l-69.28-40c-7.81-4.51-14.15-16.61-14.15-27V47.77c0-5.3-4.35-6.47-1.72-8.37.1-.07,10.24-4.64,10.35-4.69a10.24,10.24,0,0,1,9.57.56l69.28,40c7.81,4.51,14.15,16.62,14.15,27v184.5c0,5.54-1.79,9.48-4.64,11.29-.17.11-11.54,5.4-11.73,5.46C387.27,304.4,391.39,301.28,388,299.31Z"/><path class="cls-53" d="M388,299.31l-69.28-40c-7.81-4.51-14.15-16.61-14.15-27V47.77c0-5.3-4.35-6.47-1.72-8.37.1-.07,10.06-4.58,10.18-4.62a10.22,10.22,0,0,1,9.57.56l69.28,40C399.66,79.85,406,92,406,102.37v184.5c0,5.54-1.79,9.49-4.64,11.29-.17.11-11.37,5.34-11.56,5.4C387.27,304.4,391.39,301.28,388,299.31Z"/><path class="cls-54" d="M388,299.31l-69.28-40c-7.81-4.51-14.15-16.61-14.15-27V47.77c0-5.3-4.35-6.47-1.72-8.37.1-.07,9.89-4.52,10-4.56a10.22,10.22,0,0,1,9.57.56l69.28,40c7.81,4.51,14.15,16.61,14.15,27V286.94c0,5.53-1.79,9.48-4.64,11.29-.17.1-11.2,5.27-11.39,5.33C387.27,304.4,391.39,301.28,388,299.31Z"/><path class="cls-55" d="M388,299.31l-69.28-40c-7.81-4.51-14.15-16.61-14.15-27V47.77c0-5.3-4.35-6.47-1.72-8.37.1-.07,9.72-4.45,9.84-4.5a10.24,10.24,0,0,1,9.57.56l69.28,40c7.81,4.51,14.15,16.62,14.15,27V287c0,5.54-1.79,9.48-4.64,11.29-.17.11-11,5.21-11.22,5.27C387.27,304.4,391.39,301.28,388,299.31Z"/><path class="cls-56" d="M388,299.31l-69.28-40c-7.81-4.51-14.15-16.61-14.15-27V47.77c0-5.3-4.35-6.47-1.72-8.37.1-.07,9.55-4.39,9.67-4.43a10.19,10.19,0,0,1,9.57.56l69.28,40c7.81,4.52,14.15,16.62,14.15,27v184.5c0,5.54-1.79,9.49-4.64,11.29-.17.11-10.86,5.15-11.05,5.21C387.27,304.4,391.39,301.28,388,299.31Z"/><path class="cls-57" d="M388,299.31l-69.28-40c-7.81-4.51-14.15-16.61-14.15-27V47.77c0-5.3-4.35-6.47-1.72-8.37.1-.07,9.38-4.33,9.5-4.37a10.2,10.2,0,0,1,9.56.56l69.28,40c7.82,4.51,14.15,16.61,14.15,27V287.13c0,5.53-1.78,9.48-4.63,11.29-.17.1-10.69,5.08-10.88,5.14C387.27,304.4,391.39,301.28,388,299.31Z"/><path class="cls-58" d="M388,299.31l-69.28-40c-7.81-4.51-14.15-16.61-14.15-27V47.77c0-5.3-4.35-6.47-1.72-8.37.1-.07,9.21-4.26,9.33-4.31a10.22,10.22,0,0,1,9.56.56l69.28,40c7.82,4.51,14.15,16.62,14.15,27v184.5c0,5.54-1.78,9.48-4.63,11.29-.17.11-10.52,5-10.71,5.08C387.27,304.4,391.39,301.28,388,299.31Z"/><path class="cls-59" d="M388,299.31l-69.28-40c-7.81-4.51-14.15-16.61-14.15-27V47.77c0-5.3-4.35-6.47-1.72-8.37.1-.07,9-4.2,9.15-4.24a10.21,10.21,0,0,1,9.57.55l69.28,40c7.82,4.52,14.15,16.62,14.15,27v184.5c0,5.54-1.79,9.49-4.63,11.29-.17.11-10.35,5-10.54,5C387.27,304.4,391.39,301.28,388,299.31Z"/><path class="cls-60" d="M388,299.31l-69.28-40c-7.81-4.51-14.15-16.61-14.15-27V47.77c0-5.3-4.35-6.47-1.72-8.37.1-.07,8.87-4.14,9-4.18a10.22,10.22,0,0,1,9.57.56l69.28,40c7.82,4.51,14.15,16.61,14.15,27V287.32c0,5.53-1.79,9.48-4.64,11.29-.16.1-10.17,4.89-10.36,4.95C387.27,304.4,391.39,301.28,388,299.31Z"/><path class="cls-61" d="M388,299.31l-69.28-40c-7.81-4.51-14.15-16.61-14.15-27V47.77c0-5.3-4.35-6.47-1.72-8.37.1-.07,8.7-4.07,8.81-4.12a10.24,10.24,0,0,1,9.57.56l69.28,40c7.82,4.51,14.15,16.62,14.15,27v184.5c0,5.54-1.79,9.48-4.64,11.29-.16.11-10,4.83-10.19,4.89C387.27,304.4,391.39,301.28,388,299.31Z"/><path class="cls-62" d="M388,299.31l-69.28-40c-7.81-4.51-14.15-16.61-14.15-27V47.77c0-5.3-4.35-6.47-1.72-8.37.1-.07,8.53-4,8.64-4a10.21,10.21,0,0,1,9.57.55l69.28,40c7.82,4.52,14.15,16.62,14.15,27v184.5c0,5.54-1.79,9.49-4.64,11.29-.17.11-9.83,4.77-10,4.83C387.27,304.4,391.39,301.28,388,299.31Z"/><path class="cls-63" d="M388,299.31l-69.28-40c-7.81-4.51-14.15-16.61-14.15-27V47.77c0-5.3-4.35-6.47-1.72-8.37.1-.07,8.36-3.95,8.47-4a10.22,10.22,0,0,1,9.57.56l69.28,40c7.81,4.51,14.15,16.61,14.15,27V287.51c0,5.53-1.79,9.48-4.64,11.29-.17.1-9.66,4.7-9.85,4.76C387.27,304.4,391.39,301.28,388,299.31Z"/><path class="cls-64" d="M388,299.31l-69.28-40c-7.81-4.51-14.15-16.61-14.15-27V47.77c0-5.3-4.35-6.47-1.72-8.37.1-.07,8.19-3.88,8.3-3.93a10.24,10.24,0,0,1,9.57.56L390,76c7.81,4.51,14.15,16.62,14.15,27v184.5c0,5.54-1.79,9.48-4.64,11.29-.17.11-9.49,4.64-9.68,4.7C387.27,304.4,391.39,301.28,388,299.31Z"/><path class="cls-65" d="M388,299.31l-69.28-40c-7.81-4.51-14.15-16.61-14.15-27V47.77c0-5.3-4.35-6.47-1.72-8.37.1-.07,8-3.82,8.13-3.86a10.21,10.21,0,0,1,9.57.55l69.28,40c7.81,4.52,14.15,16.62,14.15,27v184.5c0,5.54-1.79,9.49-4.64,11.29-.17.11-9.32,4.58-9.51,4.64C387.27,304.4,391.39,301.28,388,299.31Z"/><path class="cls-66" d="M388,299.31l-69.28-40c-7.81-4.51-14.15-16.61-14.15-27V47.77c0-5.3-4.35-6.47-1.72-8.37.1-.07,7.84-3.76,8-3.8a10.22,10.22,0,0,1,9.57.56l69.28,40c7.81,4.51,14.15,16.61,14.15,27V287.7c0,5.53-1.79,9.48-4.64,11.29-.17.1-9.15,4.51-9.34,4.57C387.27,304.4,391.39,301.28,388,299.31Z"/><path class="cls-67" d="M388,299.31l-69.28-40c-7.81-4.51-14.15-16.61-14.15-27V47.77c0-5.3-4.35-6.47-1.72-8.37.1-.07,7.67-3.69,7.79-3.74a10.24,10.24,0,0,1,9.57.56l69.28,40c7.81,4.51,14.15,16.62,14.15,27v184.5c0,5.54-1.79,9.48-4.64,11.29-.17.11-9,4.45-9.17,4.51C387.27,304.4,391.39,301.28,388,299.31Z"/><path class="cls-68" d="M388,299.31l-69.28-40c-7.81-4.51-14.15-16.61-14.15-27V47.77c0-5.3-4.35-6.47-1.72-8.37.1-.07,7.5-3.63,7.62-3.67a10.21,10.21,0,0,1,9.57.55l69.28,40c7.81,4.52,14.15,16.62,14.15,27v184.5c0,5.54-1.79,9.49-4.64,11.29-.17.11-8.81,4.39-9,4.45C387.27,304.4,391.39,301.28,388,299.31Z"/><path class="cls-69" d="M388,299.31l-69.28-40c-7.81-4.51-14.15-16.61-14.15-27V47.77c0-5.3-4.35-6.47-1.72-8.37.1-.07,7.33-3.57,7.45-3.61a10.22,10.22,0,0,1,9.57.56l69.28,40c7.81,4.51,14.15,16.61,14.15,27V287.89c0,5.53-1.79,9.48-4.64,11.29-.17.1-8.64,4.32-8.83,4.38C387.27,304.4,391.39,301.28,388,299.31Z"/><path class="cls-70" d="M388,299.31l-69.28-40c-7.81-4.51-14.15-16.61-14.15-27V47.77c0-5.3-4.35-6.47-1.72-8.37.1-.07,7.16-3.5,7.28-3.55a10.22,10.22,0,0,1,9.56.56l69.28,40c7.82,4.51,14.15,16.62,14.15,27V288c0,5.54-1.78,9.48-4.63,11.29-.17.11-8.47,4.26-8.66,4.32C387.27,304.4,391.39,301.28,388,299.31Z"/><path class="cls-71" d="M388,299.31l-69.28-40c-7.81-4.51-14.15-16.61-14.15-27V47.77c0-5.3-4.35-6.47-1.72-8.37.1-.07,7-3.44,7.11-3.48a10.19,10.19,0,0,1,9.56.55l69.28,40c7.82,4.52,14.15,16.62,14.15,27V288c0,5.54-1.78,9.49-4.63,11.29-.17.11-8.3,4.2-8.49,4.26C387.27,304.4,391.39,301.28,388,299.31Z"/><path class="cls-72" d="M381.36,302.44l-69.28-40c-7.82-4.51-14.15-16.62-14.15-27V50.9c0-10.42,6.33-15.21,14.15-10.7l69.28,40c7.81,4.51,14.15,16.62,14.15,27v184.5C395.51,302.16,389.17,307,381.36,302.44Z"/><path class="cls-73" d="M387,302.73a9.89,9.89,0,0,1-4.92-1.51l-69.28-40c-7.42-4.28-13.45-15.86-13.45-25.82V50.9c0-6.68,2.8-11,7.13-11a9.89,9.89,0,0,1,4.92,1.51l69.28,40c7.41,4.28,13.45,15.86,13.45,25.82v184.5C394.11,298.42,391.31,302.73,387,302.73Z"/><path class="cls-50" d="M302.61,237.75V54c0-7.65,4.65-11.16,10.39-7.85l67.44,38.94c5.73,3.31,10.38,12.19,10.38,19.84V288.68c0,7.65-4.65,11.16-10.38,7.85L313,257.59C307.26,254.28,302.61,245.4,302.61,237.75Z"/><path class="cls-74" d="M313.78,48.14C308.37,45,304,47.52,304,53.72V239.58c0,6.2,4.38,13.76,9.79,16.88l65.88,38c5.4,3.12,9.78.62,9.78-5.58V103.06c0-6.2-4.38-13.76-9.78-16.88Z"/><path class="cls-75" d="M400.82,167.87h0c-2,1.15-3.6-.07-3.6-2.72v-15c0-2.65,1.62-5.73,3.6-6.88h0c2-1.14,3.6.07,3.6,2.72v15C404.42,163.65,402.81,166.73,400.82,167.87Z"/><path class="cls-76" d="M308.65,61.68c0,1.34-.07,109.24-.08,126.94v26c0,6.47-4.15,14.2-9.55,18.26l46.42,26.77h13.87V271a7.78,7.78,0,0,0,6.06,7.84h.05a6.08,6.08,0,0,0,.76.09h.88a10.66,10.66,0,0,0,4.51-1.52,19.81,19.81,0,0,0,4.76-4,16,16,0,0,0,4-6,21.89,21.89,0,0,0,2.44-9.43c0-.05.06-1.15.06-4.23,0-.75.05-148.77.05-149.51Z"/><path class="cls-77" d="M308.65,83.78l74.26,42.55c0-17.88,0-26.38,0-23L308.65,60.75c0-2.19-.07,105.71-.08,123.41V200C308.59,171.89,308.65,80,308.65,83.78Z"/><path class="cls-78" d="M335.05,262a12.18,12.18,0,0,0,2.59,1.93v-.46Z"/><path class="cls-72" d="M372.89,150.78,316.5,117.71V130.6l56.39,32.55Z"/><path class="cls-50" d="M372.89,161.42,317.24,129.3V118.14l-.74-.43V130.6l56.39,32.55Z"/><path class="cls-72" d="M372.89,185.05,316.5,152v12.9l56.39,32.55Z"/><path class="cls-50" d="M372.89,195.69l-55.65-32.12V152.41l-.74-.44v12.9l56.39,32.55Z"/><path class="cls-72" d="M372.89,250.37,316.5,217.3v12.9l56.39,32.54Z"/><path class="cls-50" d="M372.89,261,317.24,228.9V217.74l-.74-.44v12.9l56.39,32.54Z"/><path class="cls-72" d="M333.19,196.05,316.5,186v12.89l16.69,9.57Z"/><path class="cls-50" d="M333.19,206.69l-15.95-9.14V186.4l-.74-.44v12.89l16.69,9.57Z"/><path class="cls-72" d="M353,207.61l-16.41-10c0,5.34,0,9.56,0,12.9L353,220Z"/><path class="cls-50" d="M353,218.25l-15.68-9c0-3,0-6.64,0-11.16l-.74-.44c0,5.34,0,9.56,0,12.9L353,220Z"/><path class="cls-79" d="M316.49,112.86h0C316.48,113.42,316.49,113.34,316.49,112.86Zm30.09,14.42L316.49,110v2.88l30.09,17.3ZM357,167.66l-40.47-23.41v2.88L357,170.53Zm-40.47-20.53h0C316.48,147.68,316.49,147.61,316.49,147.13Zm0,34h0C316.48,181.67,316.49,181.6,316.49,181.11Zm0,0L333.9,191v-2.87l-17.41-9.88Zm20.05,11.67h0Zm0,0,17.14,9.77v-2.87l-17.13-9.78C336.54,191.18,336.54,192.24,336.54,192.78Zm19.79,8.82c0,1.28,0,2.34,0,2.88l17,9.5V211.1Zm0,2.88h0Z"/><path class="cls-72" d="M372.61,219l-16.28-9.71v12.9l16.28,9.18Z"/><path class="cls-50" d="M372.61,229.67l-15.54-8.75c0-3,0-6.64,0-11.16l-.75-.44v12.9l16.28,9.18Z"/><polygon class="cls-50" points="329.2 194.75 326.72 197.03 331.69 199.9 329.2 194.75"/><polygon class="cls-50" points="329.2 203.53 331.69 201.26 326.72 198.38 329.2 203.53"/><polygon class="cls-50" points="349.12 206.31 346.63 208.59 351.61 211.46 349.12 206.31"/><polygon class="cls-50" points="349.12 215.09 351.61 212.82 346.63 209.95 349.12 215.09"/><polygon class="cls-50" points="368.34 217.32 365.86 219.59 370.83 222.46 368.34 217.32"/><polygon class="cls-50" points="368.34 226.09 370.83 223.82 365.86 220.95 368.34 226.09"/><g class="cls-80"><path class="cls-3" d="M308.66,204.83c-8.8-5.08-15.93-1-15.93,9.08v6.87c0,10.09,7.13,22.39,15.93,27.47l54.71,30c8.79,5.08,4.18-5.86,4.18-15.95v-6.87c0-10.1-10.66-21.84-19.45-26.91Z"/><path class="cls-81" d="M308.46,205.11c-8.78-5.07-15.9-1-15.9,9.07v6.2c0,10.08,7.12,22.36,15.9,27.43l53.07,29.28c8.78,5.07,5.22-5.23,5.22-15.31v-6.2c0-10.08-10.32-21.86-19.11-26.93Z"/><path class="cls-82" d="M308.27,205.4c-8.77-5.07-15.88-1-15.88,9V220c0,10.07,7.11,22.34,15.88,27.4l51.41,28.56c8.78,5.06,6.28-4.62,6.28-14.68v-5.53c0-10.07-10-21.88-18.77-26.95Z"/><path class="cls-83" d="M308.08,205.68c-8.76-5.06-15.87-1-15.87,9v4.86c0,10,7.11,22.3,15.87,27.36l49.76,27.83c8.76,5.06,7.33-4,7.33-14v-4.85c0-10.06-9.67-21.9-18.43-27Z"/><path class="cls-84" d="M307.89,206c-8.76-5.05-15.85-1-15.85,9v4.19c0,10,7.09,22.27,15.85,27.33L356,273.62c8.75,5.05,8.37-3.37,8.37-13.41V256c0-10-9.34-21.92-18.09-27Z"/><path class="cls-85" d="M307.69,206.25c-8.74-5-15.82-1-15.82,9v3.51c0,10,7.08,22.25,15.82,27.29l46.47,26.38c8.74,5.05,9.42-2.74,9.42-12.77v-3.51c0-10-9-22-17.75-27Z"/><path class="cls-86" d="M307.5,206.54c-8.73-5-15.8-1-15.8,9v2.84c0,10,7.07,22.22,15.8,27.26l44.82,25.65c8.73,5,10.46-2.11,10.46-12.13v-2.84c0-10-8.67-22-17.4-27Z"/><path class="cls-87" d="M307.31,206.82c-8.72-5-15.79-1-15.79,9V218c0,10,7.07,22.2,15.79,27.23l43.17,24.93c8.71,5,11.51-1.5,11.51-11.5v-2.17c0-10-8.35-22-17.07-27Z"/><path class="cls-88" d="M307.11,207.11c-8.7-5-15.76-1-15.76,9v1.5c0,10,7.06,22.16,15.76,27.19L348.63,269c8.71,5,12.56-.87,12.56-10.86v-1.5c0-10-8-22-16.72-27Z"/><path class="cls-89" d="M306.92,207.4c-8.69-5-15.74-1-15.74,9v.83c0,10,7.05,22.13,15.74,27.15l39.87,23.48c8.7,5,13.61-.25,13.61-10.22v-.83c0-10-7.69-22-16.38-27.06Z"/><path class="cls-90" d="M306.73,207.68c-8.68-5-15.72-1-15.72,9v.15c0,10,7,22.11,15.72,27.12L345,266.67c8.68,5,14.66.38,14.66-9.59v-.15c0-10-7.36-22.06-16.05-27.07Z"/><path class="cls-49" d="M306.54,208c-8.68-5-15.71-1-15.71,8.95v-.52c0,9.95,7,22.08,15.71,27.09l36.57,22c8.67,5,15.7,1,15.7-9v.52c0-9.95-7-22.08-15.7-27.09Z"/></g><path class="cls-50" d="M360.42,271c0-.13,0-19,0-28.15-.19-1.51-.31-2.43-.31-2.45-.24-6.74-5.18-9.38-11.24-5.89s-11,11.83-11.24,18.85v10.11c6.4,3.65,26.56,15.16,26.56,15.11v-.13C361.89,277.38,360.42,274.79,360.42,271Z"/><g class="cls-80"><path class="cls-3" d="M319.72,213.62c-8.79-5.08-39.8.78-39.8,10.87v91c0,10.09-5.28,44.64,3.52,49.72l39.44,23.69c8.8,5.08,31.85-13.12,31.85-23.21V266c0-10.09,11.12-26.7,2.32-31.78Z"/><path class="cls-29" d="M318,213.43c-8.79-5.07-38.66.7-38.66,10.78V314.9c0,10.08-4.68,43.57,4.11,48.64l39.3,23.61c8.79,5.07,31.09-12.45,31.09-22.54V265.67c0-10.09,10.25-26.48,1.46-31.56Z"/><path class="cls-30" d="M316.34,213.24c-8.78-5.07-37.51.61-37.51,10.69v90.33c0,10.08-4.1,42.5,4.69,47.57l39.16,23.53c8.79,5.07,30.32-11.78,30.32-21.86V265.32c0-10.08,9.39-26.26.6-31.33Z"/><path class="cls-31" d="M314.66,213.05c-8.78-5.07-36.37.53-36.37,10.6v90c0,10.07-3.51,41.42,5.26,46.49l39,23.45c8.77,5.07,29.54-11.11,29.54-21.18V265c0-10.08,8.52-26-.25-31.11Z"/><path class="cls-32" d="M313,212.86c-8.78-5.06-35.22.44-35.22,10.51V313c0,10.06-2.93,40.34,5.84,45.41l38.9,23.37c8.77,5.06,28.77-10.43,28.77-20.5V264.63c0-10.07,7.66-25.82-1.11-30.89Z"/><path class="cls-33" d="M311.28,212.67c-8.77-5.06-34.07.36-34.07,10.42v89.27c0,10.06-2.34,39.28,6.42,44.34L322.39,380c8.77,5.06,28-9.76,28-19.82V264.28c0-10.06,6.79-25.6-2-30.66Z"/><path class="cls-34" d="M309.59,212.48c-8.76-5.06-32.92.27-32.92,10.33v88.92c0,10-1.76,38.2,7,43.26l38.62,23.21c8.76,5.06,27.24-9.09,27.24-19.14V263.94c0-10.05,5.93-25.38-2.83-30.44Z"/><path class="cls-35" d="M307.9,212.29c-8.76-5-31.77.19-31.77,10.24V311.1c0,10-1.18,37.12,7.58,42.18l38.48,23.13c8.76,5,26.47-8.42,26.47-18.46V263.59c0-10,5.07-25.16-3.68-30.21Z"/><path class="cls-36" d="M306.21,212.1c-8.75-5-30.63.11-30.63,10.14v88.22c0,10-.58,36.05,8.17,41.1l38.35,23.06c8.74,5.05,25.7-7.74,25.7-17.78V263.25c0-10,4.2-24.94-4.55-30Z"/><path class="cls-37" d="M304.52,211.91c-8.74-5-29.48,0-29.48,10.05v87.87c0,10,0,35,8.75,40l38.21,23c8.74,5.05,24.93-7.07,24.93-17.1V262.9c0-10,3.34-24.72-5.4-29.77Z"/><path class="cls-38" d="M302.83,211.72c-8.74-5-28.33-.06-28.33,10V309.2c0,10,.59,33.9,9.32,38.94L321.9,371c8.74,5,24.16-6.4,24.16-16.42V262.55c0-10,2.48-24.5-6.26-29.54Z"/><path class="cls-39" d="M301.14,211.53c-8.73-5-27.18-.15-27.18,9.87v87.17c0,10,1.17,32.82,9.9,37.86l37.94,22.82c8.73,5,23.4-5.73,23.4-15.74v-91.3c0-10,1.61-24.28-7.13-29.32Z"/><path class="cls-40" d="M299.45,211.34c-8.72-5-26-.23-26,9.78v86.81c0,10,1.76,31.75,10.48,36.79l37.8,22.74c8.73,5,22.63-5,22.63-15.07V261.86c0-10,.74-24.06-8-29.09Z"/><path class="cls-41" d="M297.76,211.15c-8.72-5-24.88-.32-24.88,9.69V307.3c0,10,2.34,30.68,11.06,35.71l37.67,22.66c8.72,5,21.85-4.38,21.85-14.39V261.52c0-10-.12-23.84-8.84-28.88Z"/><path class="cls-42" d="M296.07,211c-8.71-5-23.73-.41-23.73,9.59v86.11c0,10,2.93,29.6,11.64,34.63l37.53,22.58c8.71,5,21.08-3.71,21.08-13.71v-89c0-10-1-23.62-9.69-28.65Z"/><path class="cls-43" d="M294.39,210.78c-8.71-5-22.6-.49-22.6,9.5V306c0,10,3.52,28.53,12.23,33.56l37.39,22.5c8.71,5,20.32-3,20.32-13V260.83c0-10-1.85-23.4-10.56-28.43Z"/><path class="cls-44" d="M292.7,210.59c-8.71-5-21.45-.58-21.45,9.41v85.4c0,10,4.1,27.45,12.81,32.48l37.25,22.42c8.7,5,19.55-2.36,19.55-12.35V260.48c0-10-2.71-23.18-11.41-28.2Z"/><path class="cls-45" d="M291,210.4c-8.7-5-20.3-.66-20.3,9.32v85c0,10,4.69,26.38,13.39,31.4l37.11,22.34c8.7,5,18.78-1.69,18.78-11.67V260.13c0-10-3.57-23-12.27-28Z"/><path class="cls-46" d="M289.32,210.21c-8.69-5-19.15-.75-19.15,9.22v84.71c0,10,5.27,25.3,14,30.32l37,22.26c8.69,5,18-1,18-11V259.79c0-10-4.44-22.74-13.13-27.76Z"/><path class="cls-47" d="M287.63,210c-8.69-5-18-.83-18,9.13V303.5c0,10,5.86,24.23,14.54,29.25L321,354.93c8.68,5,17.24-.35,17.24-10.31V259.44c0-10-5.3-22.52-14-27.53Z"/><path class="cls-48" d="M285.94,209.83c-8.68-5-16.85-.92-16.85,9v84c0,10,6.44,23.15,15.12,28.16l36.71,22.11c8.68,5,16.47.33,16.47-9.63V259.1c0-10-6.16-22.3-14.84-27.31Z"/><path class="cls-49" d="M284.25,209.64c-8.67-5-15.7-1-15.7,9v83.65c0,9.95,7,22.08,15.7,27.08l36.57,22c8.68,5,15.71,1,15.71-9V258.75c0-9.95-7-22.08-15.71-27.09Z"/></g><path class="cls-91" d="M283.64,192c-2.05-2-5.33-2.17-9.05,0-6,3.5-11,11.83-11.23,18.85,0,0,0,3.27,0,4.13h0c0,1.34-.08,116.77-.08,116.89,0,6.47-4.14,14.2-9.55,18.26,9.27,5.35,30.61,17.64,46.42,26.77,0,0,2.51,2.4,3.75,2.68.07.05,7.13,3.47,11.24,5.46v3.13c0,4.45,2,7.24,4.94,7.84h.05a6.48,6.48,0,0,0,.77.09h.87a10.62,10.62,0,0,0,4.51-1.52,19.62,19.62,0,0,0,4.76-4,15.88,15.88,0,0,0,4-6,21.77,21.77,0,0,0,2.45-9.43c0-.05.08-1.19.08-2.56,0-.65,0-88.65.05-117.33,0,0,0-.08,0-.12v-1.79c.25-7,5.19-15.35,11.24-18.85a8.91,8.91,0,0,1,6.62-1.33Z"/><path class="cls-92" d="M316,388.92a19.49,19.49,0,0,1,1.4-6.9l-76.26-43.73-1.63-.91a19.53,19.53,0,0,0-1.36,6.83,8.3,8.3,0,0,0,4,7.36L319,395.8l-.21-.18C317.08,394.41,316,392.12,316,388.92Z"/><path class="cls-72" d="M328.31,250l-56.38-33.08c0,5.34,0,9.56,0,12.9l56.39,32.54Z"/><path class="cls-50" d="M328.31,260.6l-55.65-32.12c0-3,0-6.64,0-11.16l-.74-.44c0,5.34,0,9.56,0,12.9l56.39,32.54Z"/><path class="cls-93" d="M271.92,209.16c0,1.28,0,2.34,0,2.88L310,233.91V231Zm0,2.88h0Zm0,34.26Zm0,0L302,263.6v-2.87l-30.09-17.3C271.92,244.71,271.92,245.76,271.91,246.3Z"/><path class="cls-72" d="M299.29,267.46l-27.36-16.31c0,5.33,0,9.56,0,12.89l27.37,15.79Z"/><path class="cls-50" d="M299.29,278.1l-26.63-15.36c0-3,0-6.63,0-11.16l-.74-.43c0,5.33,0,9.56,0,12.89l27.37,15.79Z"/><path class="cls-72" d="M328.31,317.65l-56.38-33.07c0,5.33,0,9.56,0,12.89L328.31,330Z"/><path class="cls-50" d="M328.31,328.29l-55.65-32.12c0-3,0-6.63,0-11.16l-.74-.43c0,5.33,0,9.56,0,12.89L328.31,330Z"/><path class="cls-72" d="M328.31,351.64l-56.38-33.07c0,5.33,0,9.55,0,12.89L328.31,364Z"/><path class="cls-50" d="M328.31,362.28l-55.65-32.12c0-3,0-6.64,0-11.16l-.74-.43c0,5.33,0,9.55,0,12.89L328.31,364Z"/><polygon class="cls-94" points="294.24 273.7 297.41 270.81 291.07 267.15 294.24 273.7"/><path class="cls-72" d="M328.27,284l-25.79-15.38c0,5.33,0,9.55,0,12.89l25.8,14.86Z"/><path class="cls-50" d="M328.27,294.63l-25-14.43V269l-.74-.43c0,5.33,0,9.55,0,12.89l25.8,14.86Z"/><polygon class="cls-50" points="323.58 290.51 326.75 287.61 320.42 283.96 323.58 290.51"/><ellipse class="cls-95" cx="343.54" cy="90.81" rx="19.85" ry="38.51" transform="translate(120.86 367.72) rotate(-66)"/><ellipse class="cls-96" cx="345.52" cy="93.84" rx="14.12" ry="24.45" transform="translate(-0.13 187.21) rotate(-30.31)"/><path class="cls-97" d="M345.52,73.93c9.58,5.53,17.35,18.93,17.35,29.92s-7.77,15.42-17.35,9.89Z"/><path class="cls-72" d="M351.3,100.22a14.21,14.21,0,0,1-2.9-3.47c-.48-.81-.46-1.68,0-2a3.75,3.75,0,0,0,1.48-1.65A.82.82,0,0,0,351,92.4a2.74,2.74,0,0,0-.74-1.87,9.21,9.21,0,0,0-4.67-8.2c-3.5-2-4.54-.09-4.66,2.81-.42-.1-.74.32-.74,1a3.44,3.44,0,0,0,1.14,2.06,17,17,0,0,0,1.48,3.36c.47.81.49,1.7,0,2a3.81,3.81,0,0,1-2.9.12c-1.47-.44-2.57.45-2.57,2.26v3.14a2.11,2.11,0,0,0,1,1.65l14.57,8.41c.53.3,1,.06,1-.55v-3.14A7.47,7.47,0,0,0,351.3,100.22Z"/><g class="cls-80"><path class="cls-3" d="M262.27,258.56c-3.86-2.22-7,4.28-7,8.71V307.2a15.36,15.36,0,0,0,7,12L294.84,338c3.86,2.23,8.53.2,8.53-4.22V289.12c0-4.43-4.67-9.58-8.53-11.81Z"/><path class="cls-81" d="M262.19,258.87c-3.86-2.23-7,3.84-7,8.27v39.63a15.35,15.35,0,0,0,7,12l32.45,18.68c3.85,2.23,8.38.22,8.38-4.2V289.36c0-4.42-4.53-9.59-8.38-11.81Z"/><path class="cls-82" d="M262.1,259.17c-3.85-2.22-7,3.42-7,7.83v39.34a15.35,15.35,0,0,0,7,12L294.44,337c3.85,2.23,8.23.25,8.23-4.17V289.6c0-4.41-4.38-9.59-8.23-11.82Z"/><path class="cls-83" d="M262,259.47c-3.84-2.22-7,3-7,7.4v39a15.34,15.34,0,0,0,7,12l32.22,18.55c3.85,2.22,8.09.27,8.09-4.14V289.84c0-4.41-4.24-9.6-8.09-11.82Z"/><path class="cls-84" d="M261.93,259.77c-3.83-2.22-7,2.56-7,7v38.74a15.34,15.34,0,0,0,7,12L294.05,336c3.83,2.21,7.93.28,7.93-4.12V290.08c0-4.4-4.1-9.61-7.93-11.83Z"/><path class="cls-85" d="M261.85,260.07c-3.83-2.21-6.94,2.13-6.94,6.53v38.46a15.32,15.32,0,0,0,6.94,12l32,18.42c3.83,2.21,7.78.3,7.78-4.09v-41c0-4.4-3.95-9.63-7.78-11.84Z"/><path class="cls-86" d="M261.76,260.37c-3.82-2.21-6.93,1.71-6.93,6.1v38.16a15.29,15.29,0,0,0,6.93,11.95l31.89,18.36c3.83,2.21,7.63.33,7.63-4.07v-40.3c0-4.39-3.8-9.64-7.63-11.85Z"/><path class="cls-87" d="M261.68,260.67c-3.82-2.2-6.92,1.28-6.92,5.67V304.2a15.26,15.26,0,0,0,6.92,11.94l31.77,18.29c3.82,2.21,7.48.35,7.48-4V290.81c0-4.39-3.66-9.64-7.48-11.85Z"/><path class="cls-88" d="M261.6,261c-3.82-2.2-6.92.85-6.92,5.23v37.57a15.26,15.26,0,0,0,6.92,11.93l31.65,18.22c3.82,2.2,7.34.37,7.34-4V291.05c0-4.38-3.52-9.65-7.34-11.86Z"/><path class="cls-89" d="M261.51,261.27c-3.81-2.2-6.9.42-6.9,4.8v37.28a15.24,15.24,0,0,0,6.9,11.91l31.54,18.15c3.81,2.2,7.19.39,7.19-4V291.29c0-4.37-3.38-9.66-7.19-11.86Z"/><path class="cls-90" d="M261.43,261.58c-3.81-2.2-6.9,0-6.9,4.36v37a15.19,15.19,0,0,0,6.9,11.89l31.42,18.09c3.81,2.2,7,.42,7-3.95V291.54c0-4.37-3.23-9.68-7-11.88Z"/><path class="cls-49" d="M261.34,261.88c-3.8-2.2-6.89-.44-6.89,3.92v36.69a15.2,15.2,0,0,0,6.89,11.88l31.31,18c3.81,2.2,6.89.44,6.89-3.93V291.78a15.15,15.15,0,0,0-6.89-11.88Z"/></g><path class="cls-98" d="M225.07,294.74l74.27,42.55c0-17.87,0-60.92,0-57.57l-74.28-42.55Z"/><path class="cls-99" d="M225.07,294.74l74.27,42.55c0-17.87,0-60.92,0-57.57l-74.28-42.55Z"/><path class="cls-72" d="M237.77,254.18V255l28.08,16.2,28.08,16.21v-1.29l-28.08-16.21-28.08-16.2Z"/><path class="cls-72" d="M237.77,261.28v1.29l28.08,16.2L293.93,295v-1.29l-28.08-16.21Z"/><path class="cls-72" d="M237.77,268.89v1.29l28.08,16.21,28.08,16.2V301.3l-28.08-16.2Z"/><path class="cls-72" d="M237.77,276.5v1.29L265.85,294l28.08,16.2v-1.29l-28.08-16.2Z"/><path class="cls-72" d="M237.77,284.12v1.29l28.08,16.2,28.08,16.2v-1.29l-28.08-16.2Z"/><path class="cls-72" d="M237.77,293l28.08,16.2,28.08,16.2v-1.29l-28.08-16.2-28.08-16.2Z"/><path class="cls-72" d="M233.64,252.46c0,1.07-.76,1.5-1.69,1a3.72,3.72,0,0,1-1.69-2.92c0-1.07.75-1.5,1.69-1A3.73,3.73,0,0,1,233.64,252.46Z"/><path class="cls-72" d="M233.64,260.18c0,1.07-.76,1.5-1.69,1a3.7,3.7,0,0,1-1.69-2.91c0-1.07.75-1.5,1.69-1A3.73,3.73,0,0,1,233.64,260.18Z"/><path class="cls-72" d="M233.64,267.9c0,1.07-.76,1.5-1.69,1a3.7,3.7,0,0,1-1.69-2.91c0-1.07.75-1.5,1.69-1A3.75,3.75,0,0,1,233.64,267.9Z"/><path class="cls-72" d="M233.64,275.61c0,1.07-.76,1.5-1.69,1a3.72,3.72,0,0,1-1.69-2.92c0-1.07.75-1.5,1.69-1A3.73,3.73,0,0,1,233.64,275.61Z"/><path class="cls-72" d="M233.64,283.33c0,1.07-.76,1.5-1.69,1a3.7,3.7,0,0,1-1.69-2.91c0-1.07.75-1.5,1.69-1A3.73,3.73,0,0,1,233.64,283.33Z"/><path class="cls-72" d="M233.64,291.05c0,1.07-.76,1.5-1.69,1a3.7,3.7,0,0,1-1.69-2.91c0-1.07.75-1.5,1.69-1A3.75,3.75,0,0,1,233.64,291.05Z"/><g class="cls-28"><path class="cls-3" d="M242.62,393.42a8.13,8.13,0,0,1-4.06-1l-1.42-1.32a4.3,4.3,0,0,1-2.33-3.71,5,5,0,0,1,2.81-4.22l14-10.53a10,10,0,0,1,4.93-1.25,8.13,8.13,0,0,1,4.06,1l5.72,2.55a4.29,4.29,0,0,1,2.34,3.71,5,5,0,0,1-2.81,4.22l-9.14,4.64-9.15,4.65A10,10,0,0,1,242.62,393.42Z"/><path class="cls-29" d="M265.28,375.57a4.12,4.12,0,0,1,2.25,3.57,4.81,4.81,0,0,1-2.69,4.05l-2.65,1.35-2.51,1.29-3.62,1.84s-8.77,4.43-8.8,4.43a9.08,9.08,0,0,1-3,1,10.28,10.28,0,0,1-1.76.14,7.9,7.9,0,0,1-3.9-.95l-1.37-1.26A4.13,4.13,0,0,1,235,387.5a4.78,4.78,0,0,1,2.68-4.06l2.67-2,2.34-1.77s8.41-6.32,8.44-6.32a9.62,9.62,0,0,1,4.75-1.18,9,9,0,0,1,2.05.23,6.85,6.85,0,0,1,1.85.72Z"/><path class="cls-30" d="M264.25,376.2a4,4,0,0,1,2.16,3.41,4.61,4.61,0,0,1-2.57,3.9l-2.53,1.3-2.41,1.24s-3.46,1.76-3.48,1.76S247,392,247,392a9,9,0,0,1-2.86,1,10.51,10.51,0,0,1-1.69.13,7.64,7.64,0,0,1-3.74-.92L237.37,391a4,4,0,0,1-2.16-3.41,4.6,4.6,0,0,1,2.56-3.9l2.56-1.93,2.24-1.69c.06,0,8.06-6,8.12-6a9.3,9.3,0,0,1,4.55-1.12,8.31,8.31,0,0,1,2,.23,6.46,6.46,0,0,1,1.77.69Z"/><path class="cls-31" d="M263.22,376.82a3.83,3.83,0,0,1,2.07,3.27,4.43,4.43,0,0,1-2.45,3.74s-2.4,1.23-2.42,1.25l-2.31,1.19s-3.29,1.68-3.33,1.69-8,4-8.11,4a8.69,8.69,0,0,1-2.73.9,9.74,9.74,0,0,1-1.62.12,7.36,7.36,0,0,1-3.58-.9l-1.26-1.15a3.8,3.8,0,0,1-2.07-3.27,4.41,4.41,0,0,1,2.44-3.73l2.45-1.85,2.15-1.63c.07,0,7.69-5.72,7.78-5.72a8.94,8.94,0,0,1,4.37-1.05,8.14,8.14,0,0,1,1.88.22,6.55,6.55,0,0,1,1.7.67Z"/><path class="cls-32" d="M262.19,377.44a3.66,3.66,0,0,1,2,3.12,4.2,4.2,0,0,1-2.32,3.58s-2.29,1.18-2.32,1.2l-2.2,1.15s-3.14,1.6-3.19,1.61-7.65,3.8-7.76,3.77a8.31,8.31,0,0,1-2.62.85,9.8,9.8,0,0,1-1.54.09,7.13,7.13,0,0,1-3.42-.86l-1.21-1.1a3.65,3.65,0,0,1-2-3.12,4.2,4.2,0,0,1,2.32-3.57s2.3-1.74,2.34-1.77l2-1.56c.1-.06,7.33-5.43,7.46-5.43a8.64,8.64,0,0,1,4.17-1,7.92,7.92,0,0,1,1.8.22,6.28,6.28,0,0,1,1.62.63Z"/><path class="cls-33" d="M261.16,378.06a3.55,3.55,0,0,1,1.9,3,4.05,4.05,0,0,1-2.21,3.42s-2.17,1.13-2.21,1.15l-2.09,1.1c-.06,0-3,1.52-3.05,1.54s-7.28,3.58-7.41,3.55a8.2,8.2,0,0,1-2.5.78,10.27,10.27,0,0,1-1.47.08,6.8,6.8,0,0,1-3.25-.83l-1.16-1.05a3.48,3.48,0,0,1-1.9-3,4,4,0,0,1,2.2-3.41s2.18-1.66,2.23-1.69l1.95-1.49c.13-.07,7-5.14,7.14-5.14a8.19,8.19,0,0,1,4-.91,7.77,7.77,0,0,1,1.71.21,6.26,6.26,0,0,1,1.55.61Z"/><path class="cls-34" d="M260.12,378.69a3.33,3.33,0,0,1,1.82,2.83,3.84,3.84,0,0,1-2.09,3.26l-2.1,1.1-2,1.06c-.06,0-2.82,1.43-2.9,1.45s-6.9,3.37-7.07,3.33a7.7,7.7,0,0,1-2.37.72,9.32,9.32,0,0,1-1.4.07,6.55,6.55,0,0,1-3.09-.81l-1.11-1a3.33,3.33,0,0,1-1.81-2.82,3.81,3.81,0,0,1,2.08-3.26s2.06-1.56,2.12-1.6l1.85-1.42c.16-.09,6.62-4.85,6.81-4.84a7.86,7.86,0,0,1,3.79-.85,7.64,7.64,0,0,1,1.63.21,6.17,6.17,0,0,1,1.47.58Z"/><path class="cls-35" d="M259.09,379.31a3.18,3.18,0,0,1,1.73,2.68,3.61,3.61,0,0,1-2,3.1c0,.05-1.93,1-2,1.05l-1.88,1c-.07,0-2.67,1.35-2.76,1.37s-6.53,3.17-6.72,3.12a7.8,7.8,0,0,1-2.26.66,11.57,11.57,0,0,1-1.32,0,6.33,6.33,0,0,1-2.93-.77l-1.06-.94a3.16,3.16,0,0,1-1.72-2.67,3.62,3.62,0,0,1,1.95-3.1c.05,0,2-1.48,2-1.52l1.76-1.35c.18-.1,6.26-4.56,6.48-4.55a7.43,7.43,0,0,1,3.6-.78,6.9,6.9,0,0,1,1.54.21,5.6,5.6,0,0,1,1.4.55Z"/><path class="cls-36" d="M258.06,379.93a3,3,0,0,1,1.64,2.54,3.42,3.42,0,0,1-1.85,2.94s-1.81,1-1.88,1l-1.77,1c-.09.05-2.52,1.27-2.62,1.3s-6.16,2.95-6.37,2.89a7.45,7.45,0,0,1-2.14.6,10.38,10.38,0,0,1-1.25,0,6.21,6.21,0,0,1-2.77-.74l-1-.89a3,3,0,0,1-1.64-2.52,3.4,3.4,0,0,1,1.83-2.94c0-.05,1.83-1.39,1.91-1.44l1.66-1.28c.21-.12,5.9-4.27,6.15-4.26a7.22,7.22,0,0,1,3.42-.71,6.67,6.67,0,0,1,1.45.2,5.78,5.78,0,0,1,1.32.53Z"/><path class="cls-37" d="M257,380.56a2.87,2.87,0,0,1,1.56,2.38,3.25,3.25,0,0,1-1.74,2.79c-.05,0-1.69.9-1.77.95l-1.67.92c-.09,0-2.35,1.19-2.46,1.22-.27.08-5.79,2.74-6,2.68a7.25,7.25,0,0,1-2,.53,9.3,9.3,0,0,1-1.18,0,5.84,5.84,0,0,1-2.61-.72l-1-.83a2.85,2.85,0,0,1-1.55-2.37,3.22,3.22,0,0,1,1.71-2.78c.05-.06,1.71-1.31,1.8-1.36l1.56-1.21c.23-.13,5.55-4,5.83-4a6.76,6.76,0,0,1,3.22-.64,6,6,0,0,1,1.37.2,5.27,5.27,0,0,1,1.24.5Z"/><path class="cls-38" d="M256,381.18a2.72,2.72,0,0,1,1.47,2.24,3.08,3.08,0,0,1-1.61,2.63c-.06.05-1.58.84-1.67.89l-1.56.88c-.11.06-2.2,1.11-2.32,1.15-.3.08-5.42,2.52-5.69,2.46a6.87,6.87,0,0,1-1.9.46,10.07,10.07,0,0,1-1.1,0,5.79,5.79,0,0,1-2.45-.69l-.89-.78a2.67,2.67,0,0,1-1.47-2.22,3,3,0,0,1,1.59-2.62c.06-.07,1.59-1.22,1.69-1.28l1.46-1.14c.26-.15,5.19-3.68,5.5-3.67a6.56,6.56,0,0,1,3-.58,6.47,6.47,0,0,1,1.28.19,5.85,5.85,0,0,1,1.17.48Z"/><path class="cls-39" d="M255,381.8a2.56,2.56,0,0,1,1.39,2.09,2.86,2.86,0,0,1-1.49,2.47c-.07.07-1.46.8-1.56.85l-1.45.83c-.12.07-2,1-2.18,1.07-.33.09-5,2.32-5.34,2.24a7.34,7.34,0,0,1-1.78.41c-.29,0-.74,0-1,0a5.29,5.29,0,0,1-2.28-.66l-.85-.72a2.51,2.51,0,0,1-1.38-2.07,2.81,2.81,0,0,1,1.47-2.46c.06-.08,1.47-1.14,1.57-1.2l1.38-1.07c.28-.17,4.83-3.39,5.17-3.38a6,6,0,0,1,4-.32,5.08,5.08,0,0,1,1.09.45Z"/><path class="cls-40" d="M253.93,382.43a2.37,2.37,0,0,1,1.3,1.94,2.67,2.67,0,0,1-1.37,2.31c-.07.07-1.34.74-1.44.8l-1.36.78c-.12.07-1.88.95-2,1-.36.1-4.67,2.1-5,2a7.32,7.32,0,0,1-1.65.34c-.26,0-.7,0-1,0a5.06,5.06,0,0,1-2.12-.63l-.8-.67a2.4,2.4,0,0,1-1.3-1.93,2.68,2.68,0,0,1,1.35-2.3c.08-.07,1.36-1,1.47-1.11l1.28-1a55.75,55.75,0,0,1,4.85-3.09,6,6,0,0,1,2.65-.45,5.59,5.59,0,0,1,1.11.2,4.86,4.86,0,0,1,1,.42Z"/><path class="cls-41" d="M252.9,383.05a2.2,2.2,0,0,1,1.21,1.79,2.47,2.47,0,0,1-1.25,2.16c-.07.07-1.22.68-1.33.74l-1.25.74c-.14.08-1.73.87-1.89.92a48.18,48.18,0,0,1-4.65,1.8,6.46,6.46,0,0,1-1.53.28c-.23,0-.66,0-.89,0a5.06,5.06,0,0,1-2-.6l-.74-.62a2.25,2.25,0,0,1-1.22-1.78,2.49,2.49,0,0,1,1.23-2.14c.08-.08,1.24-1,1.36-1l1.18-.93a44.88,44.88,0,0,1,4.52-2.8,5.61,5.61,0,0,1,2.46-.38,5.38,5.38,0,0,1,1,.19,4.43,4.43,0,0,1,.94.4Z"/><path class="cls-42" d="M251.87,383.67a2.1,2.1,0,0,1,1.13,1.65,2.27,2.27,0,0,1-1.14,2c-.08.08-1.1.63-1.22.7l-1.14.69c-.15.09-1.57.8-1.75.84-.41.12-3.92,1.68-4.3,1.59a6.57,6.57,0,0,1-1.42.21c-.2,0-.61-.06-.81-.06a4.7,4.7,0,0,1-1.8-.57l-.69-.56a2.09,2.09,0,0,1-1.13-1.63,2.28,2.28,0,0,1,1.11-2c.08-.09,1.12-.87,1.25-1l1.08-.86c.37-.21,3.76-2.52,4.2-2.5a5.23,5.23,0,0,1,2.27-.32,5.39,5.39,0,0,1,.94.19,4.55,4.55,0,0,1,.87.37Z"/><path class="cls-43" d="M250.84,384.3a1.92,1.92,0,0,1,1,1.49,2.09,2.09,0,0,1-1,1.84c-.08.09-1,.57-1.11.65l-1,.64c-.16.1-1.41.72-1.6.77-.44.12-3.55,1.47-4,1.36a6.79,6.79,0,0,1-1.29.16c-.17,0-.57-.08-.74-.08a4.8,4.8,0,0,1-1.64-.54l-.64-.5a2,2,0,0,1-1-1.49,2.07,2.07,0,0,1,1-1.82c.09-.1,1-.79,1.14-.87l1-.79c.39-.23,3.4-2.22,3.86-2.21a4.83,4.83,0,0,1,2.08-.25,5.44,5.44,0,0,1,.86.18,4.72,4.72,0,0,1,.79.35Z"/><path class="cls-44" d="M249.8,384.92a1.77,1.77,0,0,1,1,1.35,1.88,1.88,0,0,1-.9,1.68c-.09.09-.86.51-1,.59l-.93.6a15,15,0,0,1-1.46.69c-.47.14-3.18,1.26-3.61,1.15a7.59,7.59,0,0,1-1.17.09c-.15,0-.53-.09-.67-.09a4.71,4.71,0,0,1-1.48-.51L239,390a1.8,1.8,0,0,1-1-1.34,1.86,1.86,0,0,1,.87-1.66,10.73,10.73,0,0,1,1-.79l.89-.72c.41-.24,3-1.93,3.54-1.92a4.61,4.61,0,0,1,1.89-.18,5.79,5.79,0,0,1,.77.18,5.23,5.23,0,0,1,.72.32Z"/><path class="cls-45" d="M248.77,385.54a1.61,1.61,0,0,1,.87,1.21,1.68,1.68,0,0,1-.77,1.51c-.1.1-.75.46-.9.55l-.82.56a13.28,13.28,0,0,1-1.32.61c-.5.14-2.8,1-3.27.92a7.28,7.28,0,0,1-1.05,0c-.11,0-.47-.11-.59-.11a4.54,4.54,0,0,1-1.31-.48l-.54-.39a1.64,1.64,0,0,1-.87-1.19,1.67,1.67,0,0,1,.75-1.5,8.58,8.58,0,0,1,.92-.71l.79-.66a15.68,15.68,0,0,1,3.22-1.62,4.4,4.4,0,0,1,1.7-.11,4.5,4.5,0,0,1,.68.18,4.15,4.15,0,0,1,.64.29Z"/><path class="cls-46" d="M247.74,386.16a1.37,1.37,0,0,1,.13,2.42,6,6,0,0,1-.79.5l-.71.51a9.64,9.64,0,0,1-1.18.53,11.94,11.94,0,0,1-2.92.71,3.21,3.21,0,0,1-.93,0c-.08,0-.43-.12-.52-.12a4.83,4.83,0,0,1-1.15-.45l-.49-.34a1.51,1.51,0,0,1-.78-1,1.46,1.46,0,0,1,.62-1.34,8.05,8.05,0,0,1,.82-.64l.7-.58a11.38,11.38,0,0,1,2.88-1.33,4.26,4.26,0,0,1,1.51,0,5.43,5.43,0,0,1,.61.17c.09,0,.47.22.56.27Z"/><path class="cls-47" d="M246.71,386.79a1.34,1.34,0,0,1,.7.91,1.31,1.31,0,0,1-.54,1.2,4.43,4.43,0,0,1-.68.44l-.61.47a8,8,0,0,1-1,.46,8.61,8.61,0,0,1-2.57.48,3.1,3.1,0,0,1-.81-.09c-.06,0-.39-.14-.45-.14a5.45,5.45,0,0,1-1-.42l-.43-.29a1.33,1.33,0,0,1-.7-.89,1.3,1.3,0,0,1,.5-1.19,5.3,5.3,0,0,1,.71-.55l.6-.51a8,8,0,0,1,2.56-1,3.66,3.66,0,0,1,1.32,0,4.51,4.51,0,0,1,.52.17l.48.23Z"/><path class="cls-48" d="M245.68,387.41a1.17,1.17,0,0,1,.61.76,1.11,1.11,0,0,1-.42,1,2.86,2.86,0,0,1-.57.4l-.5.42a5,5,0,0,1-.88.38,5.67,5.67,0,0,1-2.24.27,2.94,2.94,0,0,1-.68-.16s-.35-.15-.38-.15a7.07,7.07,0,0,1-.83-.4l-.38-.23a1.22,1.22,0,0,1-.61-.74,1.11,1.11,0,0,1,.38-1,3.79,3.79,0,0,1,.6-.47l.5-.44a5.55,5.55,0,0,1,2.23-.74,3.51,3.51,0,0,1,1.13.09,4.5,4.5,0,0,1,.44.16l.41.21Z"/><path class="cls-49" d="M240.82,390.38l-1.3-.71c-.81-.48-.71-1.3.23-1.85l.4-.37a3.59,3.59,0,0,1,3.2-.13l1.29.71c.82.48.72,1.3-.22,1.85l-.4.37A3.59,3.59,0,0,1,240.82,390.38Z"/></g><path class="cls-100" d="M230.31,324l-2.55,2.11-1.49,1.09-.8.8s-.84,1-1.06,1a.82.82,0,0,1-.35-.08l.66-1.38,1.07-1.15-1.6.62-1.37.14s-1.22.05-1.49-.28-.08-.55-.08-.55a.79.79,0,0,1-.23-.49c0-.26,1.74-.51,1.74-.51l1-.51,2.89-1.75,2.69-.56Z"/><path class="cls-101" d="M229.23,322.13a15,15,0,0,0-3,.65,19.15,19.15,0,0,0-1.53,1.48s-.88,1.31-.67,1.61,1.08-.57,1.19-.79a11.44,11.44,0,0,1,1.2-1.21l.8-.07a2.4,2.4,0,0,0,2.06-1.67Z"/><path class="cls-102" d="M228.56,322a7,7,0,0,0,.83,1.5c.51.69.89.7.89.7s8.71-8.92,9.56-9.43c1-.6,8.86-6.54,8.86-6.54s4.46-13,.61-10.42-12.65,13.63-12.65,13.63Z"/><path class="cls-103" d="M250.27,302.85l-12.15,11-8.72,9.73c.51.66.88.68.88.68s8.71-8.92,9.56-9.43c1-.6,8.86-6.54,8.86-6.54S249.63,305.56,250.27,302.85Z"/><path class="cls-104" d="M242.46,390.11c.86.06,2.48-.6,2.48-1s-1.57-1.54-1.82-1.63a4.55,4.55,0,0,0-.85-.16l0-1.85s-1.16-.81-1.82-1.35a11.41,11.41,0,0,0-1.37-.94,26.72,26.72,0,0,0-2,2.1c-.35.51.34,1.48,1.75,2.23S242,390.08,242.46,390.11Z"/><path class="cls-105" d="M236.85,385.44a1.46,1.46,0,0,0,.72,2.22c1,.51,4.26,2.67,4.86,2.89a3.8,3.8,0,0,0,2.51-1c.06-.28,0-.37,0-.37s-1.38.94-2.17.65a13.45,13.45,0,0,1-3.44-2.66A11,11,0,0,0,236.85,385.44Z"/><path class="cls-106" d="M214.46,357.63s16.23-6,17.52-6.78S257.07,333,257.07,333l-14.29-6.58-15.27,18.92-14,8.62Z"/><path class="cls-103" d="M230.58,349.42l-16.49,6.73.37,1.48s16.23-6,17.52-6.78S257.07,333,257.07,333l-5.73-2.64Z"/><path class="cls-107" d="M250.26,327.63s-1.53.46-1.53,6,.31,26.56.31,26.56l-10.56,23.56a17.7,17.7,0,0,0,2,1.51,6.22,6.22,0,0,0,1.73.68l14-22.73A67.36,67.36,0,0,0,261.81,346c1-5.47,1.5-14.28,1.5-14.28Z"/><path class="cls-104" d="M214.85,357.55a42.37,42.37,0,0,0-2.59,4c-.54,1.15-1.94,4.06-2.82,3.43s4.33-10.85,4.33-10.85Z"/><path class="cls-105" d="M213.63,354c1.61.74.08,3.66-.7,5s-2.56,6.57-3.49,6.06a4.25,4.25,0,0,1-1.58-4.21c.48-1.58,2.27-3.42,2.72-4.27S211.76,353.11,213.63,354Z"/><path class="cls-103" d="M257.42,334.75l-3.69,27-12.9,23.67a6.08,6.08,0,0,0,1.41.51l14-22.73A67.36,67.36,0,0,0,261.81,346c1-5.47,1.5-14.28,1.5-14.28l-6.13-1.93Z"/><path class="cls-100" d="M286.43,280.36l2.47,1.1a25,25,0,0,1,3.48-2.29c1-.4,2.32-1.38,2-2.11a6,6,0,0,0-1.68-1.62,27.47,27.47,0,0,0,2.13-3,.79.79,0,0,0-.24-.82s-3.05,3.35-3.33,3.45a5.18,5.18,0,0,0-1.92,1A45,45,0,0,0,286.43,280.36Z"/><path class="cls-108" d="M289.65,281.15s0-.46-1-1.18a2.59,2.59,0,0,0-2-.45l-9.4,11.9-10.35,8.41a4.64,4.64,0,0,1-4.41.75h0c-5.8-2-11.06-4.91-13.58-2.24s-9.13,31.46-9.13,31.46a56.8,56.8,0,0,0,10.33,6c5.8,2.52,13.17,2.17,13.17,2.17s1.85-9,3.51-17.42a39.88,39.88,0,0,1,8.43-17.71l5.94-7.15C282,294.62,289.65,281.15,289.65,281.15Z"/><path class="cls-72" d="M262.46,301.57c-.37,1.18-2.7,1.5-5.19.71s-4.23-2.39-3.85-3.57,2.7-1.49,5.19-.7S262.83,300.39,262.46,301.57Z"/><path class="cls-100" d="M262,300.94c-.34,1.09-2.37,1.42-4.54.74s-3.63-2.12-3.29-3.21,2.38-1.42,4.54-.73S262.34,299.85,262,300.94Z"/><path class="cls-100" d="M262.56,296.84l-.56,4.1-7.83-2.47s1-1.73.52-2.82-6.2-6.08.52-10.83,8.45,2.81,9.2,5,1,4.37.69,4.85S262.9,296.41,262.56,296.84Z"/><path class="cls-109" d="M263.05,282.09c2.17,1.36-2.21,6.68-2.21,6.68a10.08,10.08,0,0,1,.85,2.79c-.12.57-1.08-1.26-2-.15s-.62,4.86-1.12,5.33c-.7.64-3.2.2-3.82-.62-.5-.66-5.47-6.4-1.58-10.53S261.05,280.84,263.05,282.09Z"/><path class="cls-103" d="M267.4,312.2c-1.5,1.3-8.38,23.7-8.66,25.6a36.35,36.35,0,0,0,4.47.14s1.85-9,3.51-17.42A39.82,39.82,0,0,1,272.11,307C270.42,309,268.25,311.46,267.4,312.2Z"/><path class="cls-110" d="M418.22,238.83a.55.55,0,0,1-.28-.07l-2.89-1.67a.56.56,0,1,1,.56-1l2.89,1.66a.56.56,0,0,1-.28,1Zm-5.78-3.33a.55.55,0,0,1-.28-.07l-2.89-1.67a.56.56,0,0,1-.21-.76.55.55,0,0,1,.76-.2l2.89,1.66a.56.56,0,0,1,.21.76A.55.55,0,0,1,412.44,235.5Zm-5.79-3.33a.52.52,0,0,1-.27-.07l-2.9-1.66a.58.58,0,0,1-.2-.77.56.56,0,0,1,.76-.2l2.89,1.66a.56.56,0,0,1-.28,1Zm-5.78-3.32a.6.6,0,0,1-.28-.08l-2.89-1.66a.56.56,0,0,1,.56-1l2.89,1.67a.56.56,0,0,1,.21.76A.58.58,0,0,1,400.87,228.85Zm-5.78-3.33a.57.57,0,0,1-.28-.08l-2.89-1.66a.56.56,0,0,1-.21-.76.57.57,0,0,1,.77-.21l2.89,1.67a.56.56,0,0,1-.28,1Zm-5.78-3.33a.48.48,0,0,1-.28-.08l-2.89-1.66a.56.56,0,0,1,.55-1l2.89,1.67a.56.56,0,0,1,.21.76A.55.55,0,0,1,389.31,222.19Zm-5.79-3.33a.52.52,0,0,1-.27-.07l-2.89-1.67a.56.56,0,0,1-.21-.76.54.54,0,0,1,.76-.2l2.89,1.66a.56.56,0,0,1,.21.76A.57.57,0,0,1,383.52,218.86Zm-5.78-3.33a.58.58,0,0,1-.28-.07l-2.89-1.66a.56.56,0,0,1,.56-1l2.89,1.66a.56.56,0,0,1,.21.76A.58.58,0,0,1,377.74,215.53Z"/><path class="cls-111" d="M315.13,111.31a.55.55,0,0,1-.28-.07L312,109.58a.56.56,0,0,1-.21-.76.57.57,0,0,1,.77-.21l2.89,1.66a.56.56,0,0,1-.28,1ZM309.35,108a.57.57,0,0,1-.28-.08l-2.89-1.66a.56.56,0,0,1,.55-1l2.9,1.67a.56.56,0,0,1,.2.76A.55.55,0,0,1,309.35,108Zm-5.78-3.33a.54.54,0,0,1-.28-.08l-2.89-1.66a.56.56,0,0,1,.55-1l2.89,1.67a.56.56,0,0,1,.21.76A.56.56,0,0,1,303.57,104.66Zm-5.79-3.33a.58.58,0,0,1-.28-.07l-2.89-1.67a.55.55,0,0,1-.2-.76.54.54,0,0,1,.76-.2l2.89,1.66a.56.56,0,0,1,.21.76A.58.58,0,0,1,297.78,101.33ZM292,98a.55.55,0,0,1-.28-.07l-2.89-1.67a.54.54,0,0,1-.2-.76.56.56,0,0,1,.76-.2L292.28,97a.56.56,0,0,1,.2.76A.55.55,0,0,1,292,98Z"/><path class="cls-112" d="M273.38,128.75a14.62,14.62,0,0,1-2.17-6.6c0-.61,0-.43,0-1.19s0-1.43,0-1.94a6.07,6.07,0,0,1,1.08-3.16,3,3,0,0,1,2.46-1.19,7.45,7.45,0,0,1,3.76,1.22,14.63,14.63,0,0,1,7.61,11.74c0,.64,0,.86,0,1.25,0,.58,0,1.06,0,1.45-.06,1.09-.36,1.79-.9,2.08a2.06,2.06,0,0,1-2-.26,5.33,5.33,0,0,1-1.5-1.27,6.24,6.24,0,0,1-.89-1.38,1.31,1.31,0,0,1-.9.54,2.82,2.82,0,0,1-1.71-.55,6.05,6.05,0,0,1-2.41-2.65,8.81,8.81,0,0,1-.89-4c0-1.5.29-2.5.88-3s1.38-.48,2.38.1a4.72,4.72,0,0,1,1.23,1,6.07,6.07,0,0,1,.83,1.29v-.35a.35.35,0,0,1,.14-.33.36.36,0,0,1,.35,0l.82.47a.87.87,0,0,1,.35.36.92.92,0,0,1,.14.48v4.87a3.25,3.25,0,0,0,.31,1.49,2.18,2.18,0,0,0,.87,1c.42.24.72.24.9,0a1.91,1.91,0,0,0,.26-1.06c0-.46,0-.94,0-1.46,0-.23,0-.34,0-.92a9.42,9.42,0,0,0-1.5-4.78,12.68,12.68,0,0,0-4.33-4.07c-1.66-1-2.95-1.22-3.87-.79s-1.45,1.47-1.62,3.1c0,.37-.06,1-.06,1.82a6.28,6.28,0,0,0,.06,1.08,10.7,10.7,0,0,0,1.64,5,11.61,11.61,0,0,0,4,3.71,12.85,12.85,0,0,0,2.08,1A3.58,3.58,0,0,0,282,133a5.84,5.84,0,0,0,.92-.15l.29-.08a.42.42,0,0,1,.29.08l1.14.66a1,1,0,0,1,.34.36,1,1,0,0,1,.15.48.48.48,0,0,1-.12.28c-1.45,1-3.55.72-6.33-.88A14.72,14.72,0,0,1,273.38,128.75Zm6.4-1a2.91,2.91,0,0,0,.42-1.86,5.83,5.83,0,0,0-.42-2.36,3.12,3.12,0,0,0-1.35-1.5c-1.17-.68-1.76-.07-1.76,1.82a5.79,5.79,0,0,0,.44,2.3,3.09,3.09,0,0,0,1.32,1.52C279.05,128,279.51,128.06,279.78,127.75Z"/><path class="cls-113" d="M418.22,272.2a.55.55,0,0,1-.28-.07l-2.89-1.66a.57.57,0,0,1-.21-.77.58.58,0,0,1,.77-.2l2.89,1.66a.56.56,0,0,1,.2.76A.55.55,0,0,1,418.22,272.2Zm-5.78-3.32a.57.57,0,0,1-.28-.08l-2.89-1.66a.56.56,0,0,1,.55-1l2.89,1.67a.56.56,0,0,1,.21.76A.55.55,0,0,1,412.44,268.88Zm-5.79-3.33a.53.53,0,0,1-.27-.08l-2.9-1.66a.56.56,0,0,1-.2-.76.56.56,0,0,1,.76-.21l2.89,1.67a.56.56,0,0,1,.21.76A.57.57,0,0,1,406.65,265.55Zm-5.78-3.33a.58.58,0,0,1-.28-.07l-2.89-1.67a.55.55,0,0,1-.2-.76.54.54,0,0,1,.76-.2l2.89,1.66a.56.56,0,0,1,.21.76A.58.58,0,0,1,400.87,262.22Zm-5.78-3.33a.55.55,0,0,1-.28-.07l-2.89-1.67a.56.56,0,0,1-.21-.76.57.57,0,0,1,.77-.2l2.89,1.66a.56.56,0,0,1,.2.76A.55.55,0,0,1,395.09,258.89Zm-5.78-3.33a.55.55,0,0,1-.28-.07l-2.89-1.66a.56.56,0,1,1,.55-1l2.89,1.66a.56.56,0,0,1,.21.76A.55.55,0,0,1,389.31,255.56Zm-5.79-3.32a.53.53,0,0,1-.27-.08l-2.89-1.66a.56.56,0,1,1,.55-1l2.89,1.67a.56.56,0,0,1,.21.76A.57.57,0,0,1,383.52,252.24Zm-5.78-3.33a.6.6,0,0,1-.28-.08l-2.89-1.66a.56.56,0,0,1,.56-1l2.89,1.67a.56.56,0,0,1,.21.76A.58.58,0,0,1,377.74,248.91ZM372,245.58a.57.57,0,0,1-.28-.08l-2.89-1.66a.56.56,0,0,1-.21-.76.57.57,0,0,1,.77-.21l2.89,1.67a.56.56,0,0,1-.28,1Zm-5.78-3.33a.55.55,0,0,1-.28-.07L363,240.51a.56.56,0,0,1-.21-.76.55.55,0,0,1,.76-.2l2.89,1.66a.56.56,0,0,1,.21.76A.55.55,0,0,1,366.18,242.25Z"/><path class="cls-114" d="M285.43,94.59a10.29,10.29,0,0,1-2.09-2.52c-.35-.58-.34-1.21,0-1.4a2.68,2.68,0,0,0,1.07-1.2c.37.11.82,0,.82-.53a2,2,0,0,0-.53-1.36,6.67,6.67,0,0,0-3.37-5.92c-2.53-1.46-3.28-.07-3.37,2-.31-.07-.53.23-.53.74a2.45,2.45,0,0,0,.82,1.49,12.47,12.47,0,0,0,1.07,2.43c.34.58.35,1.23,0,1.41a2.74,2.74,0,0,1-2.09.09c-1.07-.32-1.85.32-1.85,1.63v2.26a1.54,1.54,0,0,0,.69,1.2L286.59,101c.39.22.7,0,.7-.4V98.35A5.35,5.35,0,0,0,285.43,94.59Z"/><path class="cls-115" d="M315.13,145.58a.55.55,0,0,1-.28-.07L312,143.84a.56.56,0,1,1,.56-1l2.89,1.66a.56.56,0,0,1-.28,1Zm-5.78-3.33a.55.55,0,0,1-.28-.07l-2.89-1.67a.55.55,0,1,1,.55-1l2.9,1.66a.57.57,0,0,1,.2.76A.55.55,0,0,1,309.35,142.25Zm-5.78-3.33a.53.53,0,0,1-.28-.07l-2.89-1.66a.56.56,0,1,1,.55-1l2.89,1.66a.55.55,0,0,1-.27,1Zm-5.79-3.32a.6.6,0,0,1-.28-.08l-2.89-1.66a.56.56,0,0,1,.56-1l2.89,1.67a.56.56,0,0,1,.21.76A.58.58,0,0,1,297.78,135.6ZM292,132.27a.57.57,0,0,1-.28-.08l-2.89-1.66a.54.54,0,0,1-.2-.76.56.56,0,0,1,.76-.21l2.89,1.67a.56.56,0,0,1-.28,1Z"/><path class="cls-116" d="M269.81,210.12a.53.53,0,0,1-.27-.08l-2.9-1.66a.56.56,0,0,1,.56-1l2.89,1.67a.56.56,0,0,1,.21.76A.57.57,0,0,1,269.81,210.12ZM264,206.79a.58.58,0,0,1-.28-.07l-2.89-1.67a.55.55,0,0,1-.2-.76.54.54,0,0,1,.76-.2l2.89,1.66a.56.56,0,0,1-.28,1Zm-5.78-3.33a.55.55,0,0,1-.28-.07l-2.89-1.67a.56.56,0,0,1-.21-.76.58.58,0,0,1,.77-.2l2.89,1.66a.56.56,0,0,1,.2.76A.55.55,0,0,1,258.25,203.46Zm-5.78-3.33a.55.55,0,0,1-.28-.07l-2.89-1.66a.56.56,0,1,1,.55-1l2.89,1.66a.57.57,0,0,1,.21.77A.56.56,0,0,1,252.47,200.13Zm-5.79-3.32a.53.53,0,0,1-.27-.08l-2.89-1.66a.56.56,0,1,1,.55-1l2.89,1.67a.56.56,0,0,1,.21.76A.57.57,0,0,1,246.68,196.81Z"/><path class="cls-117" d="M436.07,241l-.65-.38v1.1c0,.9-.64,1.27-1.43.81a3.15,3.15,0,0,1-1.43-2.46v-1.09l-5.71-3.3v1.09c0,.9-.64,1.27-1.43.81a3.11,3.11,0,0,1-1.42-2.46V234l-.66-.38c-.69-.4-1.25-.07-1.25.71V245.1a2.73,2.73,0,0,0,1.25,2.15l12.73,7.35c.69.4,1.25.08,1.25-.71V243.11A2.77,2.77,0,0,0,436.07,241Zm.3,12.73L423,246v-9.28l13.33,7.69Zm-7.14-12.86-2.38-1.37v1.64l2.38,1.37Zm3.33,1.93-2.38-1.38V243l2.38,1.38Zm3.33,1.92-2.38-1.37v1.64l2.38,1.37Zm-10-3.58-2.38-1.38v1.64l2.38,1.37Zm3.33,1.92-2.38-1.37v1.63l2.38,1.38Zm3.33,1.92-2.38-1.37v1.64l2.38,1.37Zm3.33,1.93-2.38-1.38v1.64l2.38,1.37Zm-10-3.59-2.38-1.37v1.63l2.38,1.38Zm3.33,1.92-2.38-1.37v1.64l2.38,1.37Zm3.33,1.93-2.38-1.38v1.64l2.38,1.38Zm3.33,1.92-2.38-1.37v1.63l2.38,1.38Zm-10-3.59-2.38-1.37v1.64l2.38,1.37Zm3.33,1.93L426.85,246v1.64l2.38,1.38ZM425.42,237c.53.3,1,.06,1-.54v-2.19a2.09,2.09,0,0,0-1-1.64c-.52-.3-.95-.06-.95.54v2.19A2.12,2.12,0,0,0,425.42,237Zm8.57,4.94c.53.31.95.06.95-.54v-2.18a2.1,2.1,0,0,0-.95-1.65c-.53-.3-.95-.06-.95.55v2.18A2.07,2.07,0,0,0,434,241.93Z"/><path class="cls-118" d="M237.08,183.58c-1.56-.91-2.92-.67-3.6.42a8.9,8.9,0,0,0-3.6-4.58c-2.24-1.29-4.06-.26-4.06,2.32,0,4.71,7.66,14.95,7.66,14.95s7.67-1.39,7.67-6.1A8.93,8.93,0,0,0,237.08,183.58Z"/><path class="cls-119" d="M427.22,267.09c-3.91-2.26-7.08-.45-7.08,4,0,4.29,2.9,9.46,6.56,11.88v4l3.07-2.75c2.65.36,4.53-1.5,4.53-4.95A15.61,15.61,0,0,0,427.22,267.09Zm-2.8,7.35c-.43.25-1.12-.15-1.55-.9s-.43-1.54,0-1.78,1.12.15,1.55.9S424.85,274.2,424.42,274.44Zm3.58,2.07c-.43.24-1.13-.16-1.56-.9s-.43-1.54,0-1.79,1.13.16,1.56.9S428.43,276.26,428,276.51Zm3.58,2.07c-.43.24-1.13-.16-1.56-.9s-.43-1.55,0-1.79,1.13.16,1.56.9S432,278.33,431.58,278.58Z"/></g></g></svg>